<?xml version="1.0" encoding="utf-8"?>
<!-- Generator: Adobe Illustrator 16.0.0, SVG Export Plug-In . SVG Version: 6.00 Build 0)  -->
<!DOCTYPE svg PUBLIC "-//W3C//DTD SVG 1.1//EN" "http://www.w3.org/Graphics/SVG/1.1/DTD/svg11.dtd">
<svg version="1.1" id="Layer_1" xmlns="http://www.w3.org/2000/svg" xmlns:xlink="http://www.w3.org/1999/xlink" x="0px" y="0px"
	 width="382.4px" height="382.4px" viewBox="0 0 382.4 382.4" enable-background="new 0 0 382.4 382.4" xml:space="preserve">
<g id="Yes_Button_3_">
	<path fill="#FFFFFF" d="M191.895,372.827h-0.083c-51.09-0.012-99.122-18.979-135.237-53.425
		C20.471,284.968,0.599,239.187,0.61,190.483c-0.012-48.664,19.86-94.445,55.964-128.886C92.689,27.157,140.709,8.185,191.8,8.174
		h0.012c51.066,0,99.086,18.961,135.202,53.401c36.127,34.452,56.022,80.232,55.999,128.919
		c0.023,48.665-19.849,94.445-55.964,128.897C290.922,353.849,242.938,372.827,191.895,372.827z M191.812,27.226c0,0,0,0-0.012,0
		C146.057,27.237,103.052,44.22,70.707,75.07c-32.333,30.839-50.13,71.832-50.106,115.414
		c-0.024,43.621,17.773,84.619,50.106,115.453c32.345,30.844,75.35,47.827,121.104,47.838l0.083,9.526v-9.526
		c45.708,0,88.676-16.994,121.021-47.844c32.333-30.862,50.142-71.849,50.118-115.437c0.023-43.599-17.785-84.597-50.154-115.441
		C280.535,44.208,237.543,27.226,191.812,27.226z"/>
	<g>
		<g>
			<polygon fill="#FFFFFF" points="176.517,222.277 162.383,208.817 241.609,133.203 255.743,146.658 			"/>
			<polygon fill="#FFFFFF" points="191.337,260.376 177.145,246.972 268.607,158.903 282.8,172.302 			"/>
			<path fill="#FFFFFF" d="M169.545,215.63"/>
			<path fill="#FFFFFF" d="M283.31,171.827l-14.157-13.438c3.51-3.363,3.498-8.819-0.012-12.16
				c-3.533-3.358-9.248-3.358-12.758-0.011l-14.133-13.455c11.275-10.787,29.677-10.804,40.988-0.028
				c5.502,5.212,8.525,12.16,8.537,19.538C291.775,159.649,288.775,166.598,283.31,171.827z"/>
		</g>
		<path fill="#FFFFFF" d="M169.9,269.438c-7.742,0-15.011-2.872-20.488-8.096l14.133-13.461c3.403,3.239,9.319,3.239,12.734-0.018
			l0.332-0.339l15.26,12.308c-0.451,0.503-0.925,0.995-1.458,1.498C184.935,266.561,177.643,269.438,169.9,269.438z"/>
		<polygon fill="#FFFFFF" points="149.187,261.15 102.91,217.021 117.043,203.548 163.308,247.673 		"/>
		<polygon fill="#FFFFFF" points="169.426,229.005 129.849,191.241 143.981,177.769 183.56,215.539 		"/>
		<path fill="#FFFFFF" d="M103.076,217.077c-11.288-10.781-11.288-28.318,0-39.094c5.478-5.235,12.758-8.118,20.5-8.118
			c0,0,0.012,0,0.024,0c7.73,0,14.999,2.878,20.488,8.09l-14.109,13.483c-1.719-1.628-3.984-2.516-6.391-2.516l0,0
			c-2.407,0-4.671,0.888-6.367,2.516c-3.521,3.353-3.521,8.813-0.012,12.16L103.076,217.077z"/>
	</g>
</g>
</svg>
