<?xml version="1.0" encoding="utf-8"?>
<!-- Generator: Adobe Illustrator 16.0.0, SVG Export Plug-In . SVG Version: 6.00 Build 0)  -->
<!DOCTYPE svg PUBLIC "-//W3C//DTD SVG 1.1//EN" "http://www.w3.org/Graphics/SVG/1.1/DTD/svg11.dtd">
<svg version="1.1" id="Layer_1" xmlns="http://www.w3.org/2000/svg" xmlns:xlink="http://www.w3.org/1999/xlink" x="0px" y="0px"
	 width="382.4px" height="382.4px" viewBox="114.8 204.8 382.4 382.4" enable-background="new 114.8 204.8 382.4 382.4"
	 xml:space="preserve">
<g id="MacBook_Pro_3_">
	<g>
		<path fill="#FFFFFF" d="M303.391,492.729H165.39c-22.024,0-35.167-18.655-35.167-49.921V258.535
			c0-24.943,16.449-42.364,40.023-42.364h133.145c3.781,0,6.833,3.631,6.833,8.101c0,4.481-3.052,8.106-6.833,8.106H170.247
			c-15.77,0-26.362,10.509-26.362,26.152v184.274c0,22.373,7.24,33.718,21.509,33.718h138.002c3.78,0,6.832,3.643,6.832,8.104
			C310.224,489.109,307.172,492.729,303.391,492.729z"/>
		<path fill="#FFFFFF" d="M441.4,492.729H303.391c-3.775,0-6.831-3.62-6.831-8.098c0-4.468,3.062-8.097,6.831-8.097H441.4
			c14.269,0,21.512-11.351,21.512-33.727V258.535c0-15.643-10.591-26.151-26.361-26.151h-133.16c-3.775,0-6.831-3.631-6.831-8.107
			s3.062-8.101,6.831-8.101h133.16c23.564,0,40.023,17.423,40.023,42.364v184.275C476.569,474.074,463.424,492.729,441.4,492.729z"
			/>
	</g>
	<g>
		<path fill="#FFFFFF" d="M303.092,466.218H171.756c-20.693,0-20.693-16.869-20.693-29.192V265.394
			c0-14.295,7.227-22.495,19.822-22.495h133.418c3.77,0,6.835,3.622,6.835,8.102c0,4.468-3.065,8.103-6.835,8.103H170.885
			c-5.688,0-6.165,1.533-6.165,6.286v171.637c0,12.979,0,12.979,7.031,12.979h131.341c3.775,0,6.826,3.624,6.826,8.099
			C309.918,462.587,306.867,466.218,303.092,466.218z"/>
		<path fill="#FFFFFF" d="M435.33,466.218H304.304c-3.772,0-6.831-3.631-6.831-8.104c0-4.479,3.064-8.097,6.831-8.097H435.33
			c7.044,0,7.044,0,7.044-12.979V265.4c0-4.751-0.493-6.285-6.174-6.285H304.304c-3.772,0-6.831-3.64-6.831-8.104
			c0-4.488,3.064-8.101,6.831-8.101H436.2c12.598,0,19.825,8.2,19.825,22.497v171.63
			C456.025,449.349,456.025,466.218,435.33,466.218z"/>
	</g>
	<g>
		<g>
			<path fill="#FFFFFF" d="M190.696,513.386h-16.183c-3.773,0-6.831-3.631-6.831-8.105c0-4.478,3.063-8.103,6.831-8.103h16.183
				c3.773,0,6.83,3.632,6.83,8.103C197.526,509.755,194.464,513.386,190.696,513.386z"/>
			<path fill="#FFFFFF" d="M221.034,513.386h-16.187c-3.773,0-6.819-3.631-6.819-8.105c0-4.478,3.051-8.103,6.819-8.103h16.187
				c3.771,0,6.828,3.632,6.828,8.103C227.861,509.755,224.802,513.386,221.034,513.386z"/>
			<path fill="#FFFFFF" d="M251.396,513.386h-16.186c-3.782,0-6.828-3.631-6.828-8.105c0-4.478,3.051-8.103,6.828-8.103h16.186
				c3.773,0,6.829,3.632,6.829,8.103C258.229,509.755,255.169,513.386,251.396,513.386z"/>
			<path fill="#FFFFFF" d="M281.743,513.386h-16.186c-3.775,0-6.831-3.631-6.831-8.105c0-4.478,3.061-8.103,6.831-8.103h16.186
				c3.77,0,6.826,3.632,6.826,8.103C288.569,509.755,285.508,513.386,281.743,513.386z"/>
			<path fill="#FFFFFF" d="M312.078,513.386h-16.182c-3.77,0-6.826-3.631-6.826-8.105c0-4.478,3.061-8.103,6.826-8.103h16.182
				c3.769,0,6.83,3.632,6.83,8.103C318.908,509.755,315.847,513.386,312.078,513.386z"/>
			<path fill="#FFFFFF" d="M342.432,513.386h-16.181c-3.775,0-6.832-3.631-6.832-8.105c0-4.478,3.062-8.103,6.832-8.103h16.181
				c3.775,0,6.831,3.632,6.831,8.103C349.263,509.755,346.202,513.386,342.432,513.386z"/>
			<path fill="#FFFFFF" d="M372.776,513.386h-16.176c-3.775,0-6.831-3.631-6.831-8.105c0-4.478,3.061-8.103,6.831-8.103h16.176
				c3.78,0,6.836,3.632,6.836,8.103C379.616,509.755,376.557,513.386,372.776,513.386z"/>
			<path fill="#FFFFFF" d="M403.14,513.386h-16.195c-3.77,0-6.824-3.631-6.824-8.105c0-4.478,3.06-8.103,6.824-8.103h16.195
				c3.777,0,6.831,3.632,6.831,8.103C409.971,509.755,406.912,513.386,403.14,513.386z"/>
			<path fill="#FFFFFF" d="M433.483,513.386h-16.179c-3.777,0-6.832-3.631-6.832-8.105c0-4.478,3.061-8.103,6.832-8.103h16.179
				c3.777,0,6.831,3.632,6.831,8.103C440.314,509.755,437.256,513.386,433.483,513.386z"/>
		</g>
		<g>
			<path fill="#FFFFFF" d="M188.581,522.765h-16.522c-3.773,0-6.829-3.632-6.829-8.104s3.062-8.104,6.829-8.104h16.522
				c3.77,0,6.818,3.631,6.818,8.104S192.347,522.765,188.581,522.765z"/>
			<path fill="#FFFFFF" d="M219.494,522.765h-16.502c-3.773,0-6.829-3.632-6.829-8.104s3.061-8.104,6.829-8.104h16.502
				c3.77,0,6.828,3.631,6.828,8.104S223.258,522.765,219.494,522.765z"/>
			<path fill="#FFFFFF" d="M250.405,522.765h-16.502c-3.773,0-6.829-3.632-6.829-8.104s3.061-8.104,6.829-8.104h16.502
				c3.78,0,6.826,3.631,6.826,8.104S254.18,522.765,250.405,522.765z"/>
			<path fill="#FFFFFF" d="M281.327,522.765h-16.504c-3.77,0-6.825-3.632-6.825-8.104s3.059-8.104,6.825-8.104h16.504
				c3.77,0,6.826,3.631,6.826,8.104S285.093,522.765,281.327,522.765z"/>
			<path fill="#FFFFFF" d="M312.229,522.765h-16.485c-3.77,0-6.826-3.632-6.826-8.104s3.062-8.104,6.826-8.104h16.485
				c3.78,0,6.825,3.631,6.825,8.104S316.01,522.765,312.229,522.765z"/>
			<path fill="#FFFFFF" d="M343.161,522.765h-16.495c-3.78,0-6.837-3.632-6.837-8.104s3.062-8.104,6.837-8.104h16.495
				c3.771,0,6.826,3.631,6.826,8.104S346.932,522.765,343.161,522.765z"/>
			<path fill="#FFFFFF" d="M374.072,522.765h-16.479c-3.775,0-6.832-3.632-6.832-8.104s3.062-8.104,6.832-8.104h16.479
				c3.77,0,6.826,3.631,6.826,8.104S377.842,522.765,374.072,522.765z"/>
			<path fill="#FFFFFF" d="M405.004,522.765H388.49c-3.771,0-6.826-3.632-6.826-8.104s3.062-8.104,6.826-8.104h16.514
				c3.772,0,6.827,3.631,6.827,8.104S408.776,522.765,405.004,522.765z"/>
			<path fill="#FFFFFF" d="M435.918,522.765h-16.495c-3.78,0-6.837-3.632-6.837-8.104s3.062-8.104,6.837-8.104h16.495
				c3.771,0,6.825,3.631,6.825,8.104S439.688,522.765,435.918,522.765z"/>
		</g>
		<g>
			<path fill="#FFFFFF" d="M185.986,532.858h-16.865c-3.772,0-6.831-3.632-6.831-8.1c0-4.477,3.063-8.097,6.831-8.097h16.865
				c3.77,0,6.83,3.624,6.83,8.097C192.815,529.227,189.751,532.858,185.986,532.858z"/>
			<path fill="#FFFFFF" d="M217.592,532.858h-16.864c-3.773,0-6.83-3.632-6.83-8.1c0-4.477,3.062-8.097,6.83-8.097h16.864
				c3.773,0,6.83,3.624,6.83,8.097C224.427,529.227,221.366,532.858,217.592,532.858z"/>
			<path fill="#FFFFFF" d="M249.204,532.858h-16.865c-3.77,0-6.828-3.632-6.828-8.1c0-4.477,3.062-8.097,6.828-8.097h16.865
				c3.773,0,6.831,3.624,6.831,8.097C256.04,529.227,252.977,532.858,249.204,532.858z"/>
			<path fill="#FFFFFF" d="M280.815,532.858H263.95c-3.77,0-6.826-3.632-6.826-8.1c0-4.477,3.061-8.097,6.826-8.097h16.865
				c3.775,0,6.831,3.624,6.831,8.097C287.646,529.227,284.59,532.858,280.815,532.858z"/>
			<path fill="#FFFFFF" d="M312.421,532.858h-16.86c-3.775,0-6.832-3.632-6.832-8.1c0-4.477,3.062-8.097,6.832-8.097h16.86
				c3.77,0,6.826,3.624,6.826,8.097C319.252,529.227,316.19,532.858,312.421,532.858z"/>
			<path fill="#FFFFFF" d="M344.043,532.858h-16.877c-3.773,0-6.829-3.632-6.829-8.1c0-4.477,3.061-8.097,6.829-8.097h16.877
				c3.77,0,6.826,3.624,6.826,8.097C350.874,529.227,347.812,532.858,344.043,532.858z"/>
			<path fill="#FFFFFF" d="M375.633,532.858h-16.844c-3.771,0-6.832-3.632-6.832-8.1c0-4.477,3.067-8.097,6.832-8.097h16.844
				c3.78,0,6.842,3.624,6.842,8.097C382.475,529.227,379.413,532.858,375.633,532.858z"/>
			<path fill="#FFFFFF" d="M407.265,532.858H390.39c-3.771,0-6.826-3.632-6.826-8.1c0-4.477,3.062-8.097,6.826-8.097h16.875
				c3.775,0,6.832,3.624,6.832,8.097C414.097,529.227,411.035,532.858,407.265,532.858z"/>
			<path fill="#FFFFFF" d="M438.867,532.858h-16.855c-3.771,0-6.826-3.632-6.826-8.1c0-4.477,3.061-8.097,6.826-8.097h16.855
				c3.774,0,6.83,3.624,6.83,8.097C445.697,529.227,442.637,532.858,438.867,532.858z"/>
		</g>
	</g>
	<g>
		<path fill="#FFFFFF" d="M303.729,484.33"/>
	</g>
	<g>
		<path fill="#FFFFFF" d="M304,553.507H127.598c-4.753,0-8.952-2.736-11.516-7.514c-3.051-5.701-3.317-13.401-0.668-20.104
			l15.203-34.458c4.213-10.763,14.422-14.723,22.522-14.723H304c3.77,0,6.831,3.624,6.831,8.103c0,4.468-3.061,8.099-6.831,8.099
			H153.138c-3.872,0-8.749,1.779-10.274,5.699l-15.205,34.466c-0.758,1.953-0.307,3.935,0.02,4.32l176.326-0.108
			c3.77,0,6.829,3.632,6.829,8.104C310.83,549.889,307.77,553.507,304,553.507z"/>
		<path fill="#FFFFFF" d="M304.456,580.824h-176.01c-14.844,0-14.938-23.211-14.999-38.583c-0.013-1.852-0.013-3.644-0.043-5.332
			c-0.071-4.465,2.916-8.164,6.699-8.266c3.773-0.072,6.882,3.474,6.965,7.948c0.031,1.754,0.031,3.635,0.041,5.577
			c0.021,5.771,0.074,18.932,1.893,22.442h175.455c3.771,0,6.83,3.626,6.83,8.099C311.286,577.193,308.227,580.824,304.456,580.824z
			"/>
		<path fill="#FFFFFF" d="M481.627,553.507H305.209c-3.77,0-6.826-3.631-6.826-8.098c0-4.479,3.061-8.108,6.826-8.108h176.417
			c0.242-0.267,0.697-2.262-0.193-4.532l-14.938-33.805c-1.683-4.251-6.538-6.031-10.408-6.031H305.209
			c-3.77,0-6.826-3.636-6.826-8.098c0-4.478,3.061-8.102,6.826-8.102h150.877c8.087,0,18.292,3.96,22.652,15.058l14.927,33.785
			c2.778,7.033,2.509,14.748-0.541,20.438C490.564,550.771,486.38,553.507,481.627,553.507z"/>
		<path fill="#FFFFFF" d="M480.774,580.824H304.759c-3.77,0-6.816-3.631-6.816-8.104c0-4.479,3.051-8.099,6.816-8.099h175.465
			c1.812-3.51,1.859-16.702,1.879-22.484c0.011-1.918,0.011-3.781,0.046-5.524c0.072-4.425,3.112-7.959,6.826-7.959
			c0.04,0,0.082,0,0.132,0c3.771,0.097,6.771,3.79,6.697,8.267c-0.028,1.664-0.028,3.458-0.039,5.296
			C495.715,557.583,495.633,580.824,480.774,580.824z"/>
	</g>
</g>
</svg>
