<?xml version="1.0" encoding="utf-8"?>
<!-- Generator: Adobe Illustrator 16.0.0, SVG Export Plug-In . SVG Version: 6.00 Build 0)  -->
<!DOCTYPE svg PUBLIC "-//W3C//DTD SVG 1.1//EN" "http://www.w3.org/Graphics/SVG/1.1/DTD/svg11.dtd">
<svg version="1.1" id="Layer_1" xmlns="http://www.w3.org/2000/svg" xmlns:xlink="http://www.w3.org/1999/xlink" x="0px" y="0px"
	 width="382.4px" height="382.4px" viewBox="0 0 382.4 382.4" enable-background="new 0 0 382.4 382.4" xml:space="preserve">
<g id="Envelope_3_">
	<path fill="#FFFFFF" d="M319.876,373.442H60.434c-33.401,0-59.566-25.257-59.566-57.519V176.567
		c0-32.839,26.719-59.556,59.566-59.556h259.442c32.847,0,59.574,26.717,59.574,59.556v139.357
		C379.45,348.186,353.286,373.442,319.876,373.442z M60.434,128.753c-26.506,0-48.077,21.446-48.077,47.814v139.357
		c0,25.671,21.119,45.776,48.077,45.776h259.442c26.966,0,48.086-20.105,48.086-45.776V176.567
		c0-26.368-21.571-47.814-48.086-47.814H60.434z"/>
	<path fill="#FFFFFF" d="M190.159,316.351c-1.474,0-2.949-0.575-4.065-1.724L47.147,172.09c-2.242-2.304-2.233-6.019,0.008-8.306
		c2.242-2.287,5.881-2.282,8.131,0.013l138.947,142.541c2.232,2.295,2.225,6.016-0.026,8.307
		C193.091,315.785,191.625,316.351,190.159,316.351z"/>
	<path fill="#FFFFFF" d="M190.662,316.351c-1.475,0-2.94-0.565-4.057-1.706c-2.25-2.291-2.259-6.012-0.017-8.307l138.938-142.541
		c2.241-2.3,5.881-2.3,8.123-0.013c2.249,2.287,2.258,6.002,0.024,8.306L194.728,314.627
		C193.61,315.775,192.128,316.351,190.662,316.351z"/>
	<path fill="#FFFFFF" d="M51.212,322.945c-1.475,0-2.94-0.565-4.057-1.712c-2.241-2.287-2.25-6.006-0.008-8.301l72.248-74.126
		c2.232-2.299,5.88-2.304,8.113-0.018c2.258,2.291,2.258,6.011,0.025,8.302L55.286,321.22
		C54.162,322.371,52.678,322.945,51.212,322.945z"/>
	<path fill="#FFFFFF" d="M329.601,322.945c-1.474,0-2.949-0.574-4.074-1.726l-72.827-74.713c-2.232-2.299-2.225-6.014,0.026-8.301
		c2.24-2.291,5.88-2.291,8.113,0.014l72.835,74.713c2.233,2.295,2.225,6.014-0.024,8.301
		C332.532,322.38,331.066,322.945,329.601,322.945z"/>
	<g>
		<g>
			<path fill="#FFFFFF" d="M162.477,221.102"/>
			<path fill="#FFFFFF" d="M190.313,214.403"/>
			<path fill="#FFFFFF" d="M185.463,255.759c-1.27,0-2.548-0.423-3.613-1.308c-16.534-13.693-22.841-21.812-25.006-32.203
				c-1.943-9.383,3.767-21.691,15.025-24.387c10.722-2.574,21.512,4.246,24.035,15.188c0.732,3.161-1.186,6.319-4.279,7.064
				c-3.085,0.749-6.179-1.211-6.903-4.364c-1.074-4.651-5.651-7.561-10.228-6.455c-4.406,1.059-7.21,6.664-6.417,10.519
				c1.329,6.363,5.071,12.317,21,25.519c2.472,2.039,2.847,5.736,0.852,8.254C188.795,255.018,187.134,255.759,185.463,255.759z"/>
		</g>
		<g>
			<path fill="#FFFFFF" d="M189.588,257.214c-0.018,0-0.018,0-0.025,0c-4.304-0.019-6.742-1.865-9.077-3.93
				c-2.395-2.117-2.65-5.828-0.58-8.275c2.088-2.456,5.71-2.709,8.105-0.597c0.946,0.841,1.253,1.023,1.338,1.059
				c0.034,0.009,0.128-0.009,0.256,0c3.17,0.018,5.736,2.656,5.728,5.897C195.315,254.599,192.75,257.214,189.588,257.214z"/>
		</g>
		<g>
			<path fill="#FFFFFF" d="M217.815,222.164"/>
			<path fill="#FFFFFF" d="M190.253,214.416"/>
			<path fill="#FFFFFF" d="M193.781,255.923c-1.755,0-3.477-0.818-4.61-2.352c-1.901-2.6-1.39-6.271,1.159-8.223
				c16.407-12.569,20.37-18.376,21.938-24.696c0.938-3.802-1.662-9.503-6.025-10.73c-2.199-0.619-4.492-0.327-6.46,0.818
				c-1.979,1.142-3.393,2.997-3.989,5.235c-0.844,3.123-4.005,4.966-7.065,4.099c-3.06-0.862-4.858-4.094-4.014-7.217
				c1.423-5.258,4.755-9.644,9.4-12.331c4.646-2.691,10.041-3.375,15.171-1.921c11.183,3.128,16.406,15.658,14.123,24.936
				c-2.566,10.287-9.163,18.167-26.191,31.202C196.185,255.54,194.975,255.923,193.781,255.923z"/>
		</g>
		<g>
			<path fill="#FFFFFF" d="M189.844,257.221c-0.136,0-0.273,0-0.418-0.007c-3.17-0.088-5.676-2.788-5.582-6.029
				c0.085-3.188,2.642-5.714,5.735-5.714c0.103,0,0.205,0.009,0.273,0.009c0.153,0,0.213-0.014,0.213-0.014
				c0.042-0.021,0.358-0.191,1.321-0.988c2.455-2.034,6.086-1.646,8.08,0.88c1.985,2.526,1.603,6.22-0.869,8.258
				C196.296,255.514,193.884,257.221,189.844,257.221z"/>
		</g>
	</g>
</g>
</svg>
