<?xml version="1.0" encoding="utf-8"?>
<!-- Generator: Adobe Illustrator 16.0.0, SVG Export Plug-In . SVG Version: 6.00 Build 0)  -->
<!DOCTYPE svg PUBLIC "-//W3C//DTD SVG 1.1//EN" "http://www.w3.org/Graphics/SVG/1.1/DTD/svg11.dtd">
<svg version="1.1" id="Layer_1" xmlns="http://www.w3.org/2000/svg" xmlns:xlink="http://www.w3.org/1999/xlink" x="0px" y="0px"
	 width="382.4px" height="382.4px" viewBox="0 0 382.4 382.4" enable-background="new 0 0 382.4 382.4" xml:space="preserve">
<g id="Search_3_">
	<g>
		<g>
			<polyline fill="#FFFFFF" stroke="#FFFFFF" stroke-miterlimit="10" points="344.148,359.409 253.801,273.582 279.441,249.146 
				369.813,334.975 			"/>
			<path fill="#FFFFFF" stroke="#FFFFFF" stroke-miterlimit="10" d="M344.148,369.128c-2.605,0-5.211-0.952-7.21-2.839
				l-90.348-85.822c-1.915-1.824-3.006-4.3-3.006-6.885c0-2.58,1.079-5.05,2.993-6.88l25.641-24.435
				c3.975-3.798,10.445-3.798,14.432-0.006l90.372,85.822c3.987,3.786,3.999,9.949,0.024,13.759
				c-3.986,3.797-10.445,3.803-14.443,0.011l-83.15-78.972l-11.209,10.688l83.114,78.942c3.986,3.798,3.998,9.955,0.024,13.765
				C349.383,368.17,346.766,369.128,344.148,369.128z"/>
		</g>
		<g>
			<path fill="#FFFFFF" stroke="#FFFFFF" stroke-miterlimit="10" d="M369.897,335.05c5.998,5.649,5.126,15.818-1.963,22.554
				c-7.076,6.723-17.667,7.565-23.678,1.898"/>
			<path fill="#FFFFFF" stroke="#FFFFFF" stroke-miterlimit="10" d="M354.278,372.942c-6.397,0-12.565-2.158-17.207-6.538
				c-4.011-3.774-4.047-9.938-0.072-13.753s10.433-3.85,14.432-0.069c1.733,1.646,6.071,1.195,9.294-1.858
				c1.842-1.754,2.945-4.051,2.945-6.135c0-0.784-0.158-1.881-0.958-2.619c-4.011-3.78-4.035-9.933-0.072-13.759
				c3.975-3.814,10.421-3.85,14.432-0.075c4.508,4.254,6.992,10.082,7.016,16.413c0.013,7.255-3.247,14.526-8.942,19.939
				C369.256,370.086,361.634,372.942,354.278,372.942z"/>
		</g>
	</g>
	<path fill="#FFFFFF" stroke="#FFFFFF" stroke-miterlimit="10" d="M165.134,319.819c-43.683,0-84.761-16.211-115.649-45.649
		c-63.738-60.718-63.738-159.519,0.012-220.271C80.373,24.489,121.451,8.29,165.134,8.29c43.699,0,84.765,16.2,115.628,45.609
		c30.888,29.421,47.912,68.549,47.912,110.153c0,41.609-17.024,80.721-47.912,110.118
		C249.898,303.608,208.833,319.819,165.134,319.819z M165.134,43.297c-33.868,0-65.713,12.552-89.657,35.359
		c-49.415,47.092-49.415,123.686,0,170.755c23.956,22.831,55.801,35.4,89.657,35.4c33.871,0,65.704-12.569,89.624-35.395
		c23.98-22.802,37.164-53.111,37.164-85.366s-13.196-62.582-37.152-85.395C230.838,55.85,199.005,43.297,165.134,43.297z"/>
	<path fill="#FFFFFF" stroke="#FFFFFF" stroke-miterlimit="10" d="M107.649,200.635c-5.586,0-10.143-4.282-10.203-9.614
		c-0.206-17.492,6.762-34.004,19.606-46.486c12.845-12.495,30.04-19.472,48.409-19.639c18.346-0.358,35.665,6.446,48.8,18.687
		c13.124,12.258,20.442,28.636,20.612,46.128c0.036,5.373-4.483,9.765-10.118,9.812c-5.599-0.063-10.251-4.271-10.3-9.632
		c-0.121-12.292-5.259-23.8-14.492-32.411c-9.076-8.489-21.051-13.146-33.738-13.146c-0.182,0-0.364,0-0.545,0.012
		c-12.929,0.109-25.022,5.021-34.05,13.793c-9.016,8.772-13.911,20.377-13.766,32.67c0.061,5.373-4.459,9.771-10.106,9.828
		C107.722,200.635,107.697,200.635,107.649,200.635z"/>
	<path fill="#FFFFFF" stroke="#FFFFFF" stroke-miterlimit="10" d="M166.152,212.177c-17.789,0-32.438-13.793-32.657-30.76
		c-0.145-17.181,14.372-31.268,32.354-31.458l0,0c18.127,0,32.756,13.81,32.962,30.783c0.085,8.327-3.224,16.17-9.318,22.103
		c-6.11,5.944-14.29,9.258-23.014,9.332H166.152z M166.212,169.407c-6.895,0.069-12.36,5.367-12.299,11.808
		c0.085,6.331,5.574,11.514,12.239,11.514v9.725l0.133-9.725c3.271-0.034,6.325-1.27,8.616-3.486
		c2.278-2.228,3.526-5.171,3.49-8.287C178.318,174.59,172.853,169.407,166.212,169.407z"/>
	<path fill="#FFFFFF" stroke="#FFFFFF" stroke-miterlimit="10" d="M131.738,143.282c-3.49,0-6.895-1.714-8.797-4.79l-11.075-17.873
		c-2.86-4.628-1.236-10.584,3.611-13.314c4.871-2.724,11.124-1.189,13.983,3.439l11.063,17.873c2.86,4.623,1.248,10.59-3.599,13.32
		C135.289,142.849,133.507,143.282,131.738,143.282z"/>
	<path fill="#FFFFFF" stroke="#FFFFFF" stroke-miterlimit="10" d="M165.691,134.354c-5.586,0-10.143-4.282-10.203-9.62
		l-0.218-20.672c-0.073-5.367,4.459-9.765,10.094-9.834c5.78,0.058,10.264,4.259,10.312,9.632l0.23,20.672
		c0.049,5.373-4.471,9.771-10.106,9.822C165.764,134.354,165.728,134.354,165.691,134.354z"/>
	<path fill="#FFFFFF" stroke="#FFFFFF" stroke-miterlimit="10" d="M200.362,143.149c-1.696,0-3.417-0.404-5.004-1.247
		c-4.92-2.637-6.653-8.57-3.89-13.245l10.675-18.046c2.763-4.68,8.979-6.325,13.911-3.705c4.907,2.632,6.641,8.57,3.878,13.245
		l-10.676,18.046C207.391,141.377,203.925,143.149,200.362,143.149z"/>
</g>
</svg>
