<?xml version="1.0" encoding="utf-8"?>
<!-- Generator: Adobe Illustrator 16.0.0, SVG Export Plug-In . SVG Version: 6.00 Build 0)  -->
<!DOCTYPE svg PUBLIC "-//W3C//DTD SVG 1.1//EN" "http://www.w3.org/Graphics/SVG/1.1/DTD/svg11.dtd">
<svg version="1.1" id="Layer_1" xmlns="http://www.w3.org/2000/svg" xmlns:xlink="http://www.w3.org/1999/xlink" x="0px" y="0px"
	 width="382.4px" height="382.4px" viewBox="0 0 382.4 382.4" enable-background="new 0 0 382.4 382.4" xml:space="preserve">
<g>
	<path fill="none" stroke="#000000" stroke-width="17" stroke-linecap="round" stroke-linejoin="round" stroke-miterlimit="10" d="
		M98.975,347.892c0,13.886-11.814,25.146-26.376,25.146c-14.562,0-26.364-11.26-26.364-25.146c0-13.887,11.802-25.152,26.364-25.152
		C87.161,322.739,98.975,334.005,98.975,347.892z"/>
	<path fill="none" stroke="#000000" stroke-width="17" stroke-linecap="round" stroke-linejoin="round" stroke-miterlimit="10" d="
		M276.997,347.892c0,13.886-11.814,25.146-26.376,25.146c-14.562,0-26.377-11.26-26.377-25.146
		c0-13.887,11.814-25.152,26.377-25.152C265.183,322.739,276.997,334.005,276.997,347.892z"/>
	
		<polyline fill="none" stroke="#000000" stroke-width="17" stroke-linecap="round" stroke-linejoin="round" stroke-miterlimit="10" points="
		382.478,58.683 324.292,58.683 257.212,322.739 72.599,322.739 	"/>
	
		<polyline fill="none" stroke="#000000" stroke-width="17" stroke-linecap="round" stroke-linejoin="round" stroke-miterlimit="10" points="
		263.803,297.593 49.955,297.593 0.073,146.698 301.933,146.698 	"/>
	
		<line fill="none" stroke="#000000" stroke-width="17" stroke-linecap="round" stroke-linejoin="round" stroke-miterlimit="10" x1="158.307" y1="8.385" x2="158.307" y2="121.552"/>
	
		<polyline fill="none" stroke="#000000" stroke-width="17" stroke-linecap="round" stroke-linejoin="round" stroke-miterlimit="10" points="
		204.472,71.253 158.307,121.552 112.157,71.253 	"/>
</g>
</svg>
