<?xml version="1.0" encoding="UTF-8" standalone="no"?>
<svg width="2193px" height="1163px" viewBox="0 0 2193 1163" version="1.1" xmlns="http://www.w3.org/2000/svg" xmlns:xlink="http://www.w3.org/1999/xlink">
    <!-- Generator: Sketch 3.6.1 (26313) - http://www.bohemiancoding.com/sketch -->
    <title>Slice 1</title>
    <desc>Created with Sketch.</desc>
    <defs></defs>
    <g id="Page-1" stroke="none" stroke-width="1" fill="none" fill-rule="evenodd">
        <g id="Group-2" transform="translate(0.000000, 69.000000)">
            <g id="noun_236207_cc" transform="translate(859.000000, 168.000000)">
                <g id="Group">
                    <g transform="translate(0.510204, 0.000000)">
                        <path d="M272.295918,37.0663265 C272.75,37.3214286 273.331633,37.2959184 273.739796,36.7193878 C273.979592,36.372449 274.336735,36.0918367 274.688776,35.8418367 C274.877551,35.8979592 275.086735,35.9234694 275.321429,35.8928571 C276.647959,35.7193878 277.540816,34.9132653 278.244898,33.8673469 C278.515306,33.4642857 278.719388,33.0153061 278.933673,32.5714286 C279.147959,33.0102041 279.352041,33.4591837 279.622449,33.8673469 C280.321429,34.9132653 281.219388,35.7193878 282.545918,35.8928571 C282.780612,35.9234694 282.989796,35.8928571 283.178571,35.8418367 C283.530612,36.0918367 283.887755,36.372449 284.127551,36.7193878 C284.535714,37.3010204 285.117347,37.3214286 285.571429,37.0663265 C285.852041,36.9081633 285.943878,36.3265306 286.02551,35.9183673 C286.091837,35.6020408 286.015306,35.255102 286,34.9183673 L286.015306,34.9183673 C285.97449,33.8520408 286.05102,32.7653061 285.867347,31.7295918 C285.44898,29.3571429 283.020408,27.5612245 280.862245,27.877551 C280.515306,27.9285714 279.443878,28.3418367 278.933673,28.5612245 C278.423469,28.3418367 277.346939,27.9285714 277.005102,27.877551 C274.852041,27.5612245 272.423469,29.3520408 272,31.7295918 C271.816327,32.7704082 271.892857,33.8571429 271.846939,34.9183673 L271.862245,34.9183673 C271.846939,35.25 271.770408,35.5969388 271.836735,35.9183673 C271.923469,36.3265306 272.015306,36.9030612 272.295918,37.0663265 L272.295918,37.0663265 Z" id="Shape"></path>
                        <path d="M454.972449,88.3525102 L454.994898,88.3333673 C454.979592,88.332 454.964286,88.3292653 454.94898,88.3265306 C454.961224,88.3866939 454.971429,88.4482245 454.980612,88.5097551 C454.979592,88.4564286 454.973469,88.4072041 454.972449,88.3525102 L454.972449,88.3525102 Z" id="Shape"></path>
                        <path d="M284.806122,47.4591837 L284.806122,46.2142857 C284.806122,45.2959184 283.831633,44.8928571 282.964286,45.1887755 L280.811224,45.9336735 C280.607143,46.005102 280.464286,46.3061224 280.464286,46.622449 L280.464286,47.0510204 C280.464286,47.3673469 280.607143,47.6683673 280.811224,47.7397959 L282.964286,48.4846939 C283.836735,48.7857143 284.806122,48.377551 284.806122,47.4591837 L284.806122,47.4591837 Z" id="Shape"></path>
                        <path d="M387.887755,93.6428571 C388.30102,94.2959184 388.653061,94.9846939 388.994898,95.6836735 C391.683673,89.5561224 397.602041,80.755102 400.413265,76.7142857 C398.403061,75.8112245 396.540816,74.8214286 395.295918,74.0510204 C394.061224,73.2908163 392.280612,72.1326531 390.397959,70.877551 C390.040816,74.3877551 388.882653,77.6581633 386.979592,80.4132653 C386.744898,81.8928571 386.581633,83.4030612 386.581633,84.9693878 C386.581633,88.0255102 387.061224,90.9336735 387.897959,93.627551 C387.892857,93.627551 387.887755,93.6326531 387.887755,93.6428571 L387.887755,93.6428571 Z" id="Shape"></path>
                        <ellipse id="Oval" cx="278.943878" cy="46.8367347" rx="1.33673469" ry="1.33673469"></ellipse>
                        <path d="M351.785714,94.8418367 C351.770408,94.8010204 351.75,94.7653061 351.734694,94.7295918 C352.571429,92.0408163 353.321429,88.0204082 353.321429,84.9642857 C353.321429,83.0714286 353.122449,81.2397959 352.790816,79.4693878 C351.341837,77.1122449 350.387755,74.4438776 350,71.5765306 C348.127551,72.8163265 346.367347,73.9591837 345.137755,74.7193878 C343.826531,75.5255102 341.867347,76.5714286 339.75,77.5255102 C342.494898,81.4642857 348.066327,89.7193878 351.132653,96.0510204 C351.321429,95.6377551 351.566327,95.25 351.785714,94.8418367 L351.785714,94.8418367 Z" id="Shape"></path>
                        <path d="M97.8367347,41.2102041 L97.8367347,41.2091837 L97.8367347,41.2091837 L97.8367347,41.2102041 Z" id="Shape"></path>
                        <path d="M72.5,67.3061224 C74.2704082,70.5765306 80.0765306,81.5255102 83.2755102,90.1428571 C83.2755102,90.0918367 83.2653061,90.0357143 83.2653061,89.9846939 C83.2653061,88.627551 83.4030612,87.3112245 83.6071429,86.0153061 L83.5765306,86.0153061 L83.6683673,85.6122449 C83.8214286,84.744898 84.0102041,83.8979592 84.25,83.0612245 L89.7755102,58.8010204 C85.9489796,60.9387755 80.5612245,63.8061224 77.7295918,65.1836735 C76.4336735,65.8163265 74.5459184,66.6020408 72.5,67.3061224 L72.5,67.3061224 Z" id="Shape"></path>
                        <path d="M198.765306,59.8673469 C198.852041,60.1683673 198.913265,60.4846939 198.913265,60.8163265 C198.913265,62.7602041 197.346939,64.3367347 195.403061,64.3622449 C195.938776,65.0357143 196.75,65.4795918 197.678571,65.4795918 C199.285714,65.4795918 200.591837,64.1734694 200.591837,62.5663265 C200.591837,61.3418367 199.831633,60.3010204 198.765306,59.8673469 L198.765306,59.8673469 Z" id="Shape"></path>
                        <path d="M176.255102,79.9285714 C174.515306,81.0867347 172.877551,82.1479592 171.739796,82.8520408 C170.571429,83.5714286 168.821429,84.505102 166.928571,85.3571429 C169.566327,89.1428571 175.096939,97.372449 177.637755,103.132653 C177.959184,102.469388 178.316327,101.831633 178.709184,101.214286 C179.489796,98.6989796 179.933673,95.9795918 179.933673,93.122449 C179.933673,91.6581633 179.780612,90.244898 179.561224,88.8622449 C177.77551,86.2653061 176.596939,83.2244898 176.255102,79.9285714 L176.255102,79.9285714 Z" id="Shape"></path>
                        <path d="M111.489796,42.5612245 C111.489796,40.9183673 110.158163,39.5867347 108.515306,39.5867347 C106.872449,39.5867347 105.540816,40.9183673 105.540816,42.5612245 C105.540816,43.0510204 105.688776,43.494898 105.903061,43.9030612 L105.22449,81.6632653 L108.515306,85.1887755 L111.806122,81.6632653 L111.127551,43.9030612 C111.341837,43.494898 111.489796,43.0510204 111.489796,42.5612245 L111.489796,42.5612245 Z" id="Shape"></path>
                        <path d="M191.811224,60.8163265 C191.811224,60.4897959 191.872449,60.1785714 191.954082,59.872449 C190.892857,60.3061224 190.147959,61.3469388 190.147959,62.5663265 C190.147959,64.1734694 191.454082,65.4795918 193.061224,65.4795918 C193.989796,65.4795918 194.80102,65.0357143 195.336735,64.3622449 C193.387755,64.3469388 191.811224,62.7653061 191.811224,60.8163265 L191.811224,60.8163265 Z" id="Shape"></path>
                        <path d="M127.25,58.7959184 L132.658163,82.5816327 C132.979592,83.6326531 133.209184,84.7142857 133.392857,85.8163265 L133.484694,86.2244898 L133.454082,86.2244898 C133.637755,87.4540816 133.765306,88.7040816 133.765306,89.9846939 C133.765306,90.0408163 133.755102,90.0918367 133.755102,90.1428571 C136.954082,81.5255102 142.760204,70.5765306 144.530612,67.3061224 C142.484694,66.5969388 140.596939,65.8163265 139.295918,65.1785714 C136.469388,63.8061224 131.076531,60.9336735 127.25,58.7959184 L127.25,58.7959184 Z" id="Shape"></path>
                        <path d="M249.127551,68.7091837 C247.867347,69.3214286 246.040816,70.0816327 244.056122,70.7704082 C245.770408,73.9387755 251.392857,84.5510204 254.489796,92.8979592 C254.489796,92.8418367 254.484694,92.7857143 254.484694,92.7295918 C254.484694,91.9693878 254.540816,91.2193878 254.617347,90.4795918 C254.627551,90.3622449 254.647959,90.25 254.658163,90.1326531 C254.69898,89.7857143 254.734694,89.4336735 254.785714,89.0867347 L254.755102,89.0867347 L254.846939,88.6938776 C254.872449,88.5408163 254.923469,88.3979592 254.94898,88.244898 C255.015306,87.8877551 255.107143,87.5408163 255.188776,87.1887755 C255.311224,86.6428571 255.397959,86.0867347 255.561224,85.5612245 L260.795918,62.5357143 C257.086735,64.5969388 251.867347,67.372449 249.127551,68.7091837 L249.127551,68.7091837 Z M248.576531,76.6326531 C247.729592,74.9744898 246.841837,73.2653061 245.872449,71.4642857 C247.270408,70.9387755 248.612245,70.372449 249.683673,69.8520408 C251.459184,68.9846939 254.341837,67.4846939 257.178571,65.9540816 C257.19898,65.9795918 257.229592,66 257.25,66.0306122 C258.44898,67.8826531 253.882653,72.3418367 248.576531,76.6326531 L248.576531,76.6326531 Z" id="Shape"></path>
                        <path d="M274.897959,45.1938776 C274.030612,44.8928571 273.061224,45.3010204 273.061224,46.2193878 L273.061224,47.4642857 C273.061224,48.3826531 274.035714,48.7857143 274.897959,48.4897959 L277.05102,47.744898 C277.255102,47.6734694 277.397959,47.372449 277.397959,47.0561224 L277.397959,46.627551 C277.397959,46.3112245 277.255102,46.0102041 277.05102,45.9387755 L274.897959,45.1938776 L274.897959,45.1938776 Z" id="Shape"></path>
                        <ellipse id="Oval" fill="#6D6D6D" cx="370.163265" cy="23.4540816" rx="19.4030612" ry="19.4030612"></ellipse>
                        <path d="M257.25,66.0306122 C257.229592,66 257.19898,65.9846939 257.178571,65.9540816 C254.341837,67.4795918 251.459184,68.9846939 249.683673,69.8520408 C248.612245,70.372449 247.270408,70.9387755 245.872449,71.4642857 C246.841837,73.2704082 247.72449,74.9744898 248.576531,76.6326531 C253.882653,72.3418367 258.44898,67.8826531 257.25,66.0306122 L257.25,66.0306122 Z" id="Shape" fill="#6D6D6D"></path>
                        <path d="M306.112245,132.535714 L306.076531,132.535714 L306.076531,219.178571 L309.158163,219.178571 L309.158163,132.892857 L309.173469,132.892857 C309.173469,131.377551 309.72449,130.005102 310.607143,128.913265 C310.19898,127.979592 309.836735,126.882653 309.510204,125.658163 C307.530612,127.326531 306.219388,129.765306 306.112245,132.535714 L306.112245,132.535714 Z" id="Shape" fill="#6D6D6D"></path>
                        <path d="M318.989796,124.091837 C318.739796,125.173469 318.47449,126.193878 318.173469,127.107143 C320.372449,128.112245 321.913265,130.316327 321.913265,132.892857 L325.015306,132.892857 C325.015306,128.882653 322.510204,125.47449 318.989796,124.091837 L318.989796,124.091837 Z" id="Shape" fill="#6D6D6D"></path>
                        <path d="M278.933673,39.8826531 C288.306122,39.8826531 295.908163,32.2857143 295.908163,22.9081633 C295.908163,13.5306122 288.311224,5.93367347 278.933673,5.93367347 C269.561224,5.93367347 261.959184,13.5306122 261.959184,22.9081633 C261.959184,32.2857143 269.561224,39.8826531 278.933673,39.8826531 L278.933673,39.8826531 Z M271.852041,34.9183673 C271.892857,33.8520408 271.816327,32.7653061 272.005102,31.7295918 C272.423469,29.3571429 274.852041,27.5612245 277.010204,27.877551 C277.357143,27.9285714 278.428571,28.3418367 278.938776,28.5612245 C279.44898,28.3418367 280.52551,27.9285714 280.867347,27.877551 C283.02551,27.5612245 285.44898,29.3520408 285.872449,31.7295918 C286.056122,32.7704082 285.979592,33.8571429 286.020408,34.9183673 L286.005102,34.9183673 C286.020408,35.25 286.096939,35.5969388 286.030612,35.9183673 C285.943878,36.3265306 285.857143,36.9081633 285.576531,37.0663265 C285.122449,37.3214286 284.540816,37.2959184 284.132653,36.7193878 C283.892857,36.372449 283.535714,36.0918367 283.183673,35.8418367 C282.994898,35.8979592 282.790816,35.9234694 282.55102,35.8928571 C281.22449,35.7193878 280.331633,34.9132653 279.627551,33.8673469 C279.357143,33.4642857 279.153061,33.0153061 278.938776,32.5714286 C278.72449,33.0102041 278.520408,33.4591837 278.25,33.8673469 C277.545918,34.9132653 276.653061,35.7193878 275.326531,35.8928571 C275.091837,35.9234694 274.882653,35.8928571 274.693878,35.8418367 C274.341837,36.0918367 273.984694,36.372449 273.744898,36.7193878 C273.336735,37.3010204 272.755102,37.3214286 272.30102,37.0663265 C272.020408,36.9081633 271.928571,36.3265306 271.846939,35.9183673 C271.780612,35.6020408 271.857143,35.255102 271.872449,34.9183673 L271.852041,34.9183673 L271.852041,34.9183673 Z" id="Shape" fill="#6D6D6D"></path>
                        <path d="M230.244898,77.4489796 C222.290816,66.5612245 205.22449,59.8520408 203.168367,59.9285714 C200.80102,58.8061224 198.168367,58.1581633 195.372449,58.1581633 C192.540816,58.1581633 189.872449,58.8214286 187.484694,59.9693878 C184.494898,60.127551 160.729592,69.8469388 156.954082,84.7193878 C156.943878,84.7602041 156.94898,84.7857143 156.938776,84.8214286 C156.52551,86.2295918 156.734694,87.8061224 157.673469,89.0765306 C157.673469,89.0765306 170.015306,106.454082 175.806122,109.112245 C174.80102,112.780612 173.658163,117.811224 172.872449,123.566327 C170.841837,140.091837 163.581633,196.147959 163.581633,196.147959 C163.581633,196.147959 168.770408,198.770408 178.040816,200.596939 C179.260204,211.015306 181.30102,220.153061 184.729592,220.153061 C187.984694,220.153061 189.989796,211.928571 191.229592,202.188776 C194.132653,202.331633 197.229592,202.357143 200.515306,202.219388 C201.744898,212.204082 203.765306,220.744898 207.081633,220.744898 C210.55102,220.744898 212.602041,211.397959 213.816327,200.831633 C218.25,200.096939 222.923469,199.05102 227.811224,197.627551 C227.811224,197.627551 221.596939,151.826531 219.632653,132.076531 C219.545918,130.857143 219.428571,129.663265 219.295918,128.479592 C219.290816,128.397959 219.280612,128.30102 219.270408,128.219388 L219.265306,128.219388 C217.872449,115.862245 214.443878,105.908163 213.341837,103.530612 C213.341837,103.530612 213.316327,103.556122 213.311224,103.556122 C213.112245,103.122449 212.913265,102.693878 212.688776,102.280612 L212.688776,102.27551 C211.903061,99.744898 211.19898,95.9693878 211.19898,93.0969388 C211.19898,91.3520408 211.382653,89.6683673 211.683673,88.0357143 C213.188776,85.6173469 214.183673,82.8469388 214.484694,79.8673469 C216.22449,81.0204082 217.857143,82.0867347 218.994898,82.7857143 C222.265306,84.8010204 230.030612,88.4693878 232.862245,87.3418367 C233.571429,87.2397959 234.270408,87 234.913265,86.5816327 C234.913265,86.5816327 235.785714,86.005102 237.183673,85.0408163 C234.729592,81.1887755 232.785714,77.8826531 231.923469,76.3979592 C231.229592,76.8367347 230.678571,77.1785714 230.244898,77.4489796 L230.244898,77.4489796 Z M178.709184,101.204082 C178.316327,101.821429 177.959184,102.464286 177.637755,103.122449 C175.096939,97.3622449 169.566327,89.1326531 166.928571,85.3469388 C168.816327,84.494898 170.566327,83.5663265 171.739796,82.8418367 C172.877551,82.1377551 174.515306,81.0765306 176.255102,79.9183673 C176.596939,83.2142857 177.770408,86.255102 179.561224,88.8418367 C179.780612,90.2244898 179.933673,91.6377551 179.933673,93.1020408 C179.933673,95.9693878 179.489796,98.6887755 178.709184,101.204082 L178.709184,101.204082 Z M193.061224,65.4795918 C191.454082,65.4795918 190.147959,64.1734694 190.147959,62.5663265 C190.147959,61.3469388 190.897959,60.3112245 191.954082,59.872449 C191.867347,60.1734694 191.811224,60.4846939 191.811224,60.8163265 C191.811224,62.7653061 193.387755,64.3469388 195.331633,64.3622449 C194.80102,65.0357143 193.989796,65.4795918 193.061224,65.4795918 L193.061224,65.4795918 Z M197.678571,65.4795918 C196.75,65.4795918 195.938776,65.0357143 195.403061,64.3622449 C197.341837,64.3367347 198.913265,62.7653061 198.913265,60.8163265 C198.913265,60.4846939 198.852041,60.1734694 198.765306,59.8673469 C199.836735,60.2959184 200.591837,61.3418367 200.591837,62.5663265 C200.591837,64.1785714 199.285714,65.4795918 197.678571,65.4795918 L197.678571,65.4795918 Z" id="Shape" fill="#6D6D6D"></path>
                        <path d="M179.663265,44.0408163 C179.663265,44.7653061 180.112245,45.3826531 180.75,45.6326531 C180.408163,45.8469388 180.163265,46.2091837 180.163265,46.6479592 C180.163265,47.3163265 180.704082,47.8622449 181.377551,47.8622449 C181.867347,47.8622449 182.290816,47.5663265 182.479592,47.1428571 C185.729592,50.7755102 190.438776,53.0765306 195.693878,53.0765306 C200.954082,53.0765306 205.663265,50.7755102 208.913265,47.1428571 C209.102041,47.5663265 209.520408,47.8622449 210.015306,47.8622449 C210.683673,47.8622449 211.229592,47.3214286 211.229592,46.6479592 C211.229592,46.2142857 210.989796,45.8469388 210.642857,45.6326531 C211.27551,45.3826531 211.729592,44.7653061 211.729592,44.0408163 C211.729592,43.7704082 211.653061,43.5204082 211.540816,43.2908163 C212.75,40.8928571 213.443878,38.1938776 213.443878,35.3265306 C213.443878,25.5255102 205.5,17.5816327 195.69898,17.5816327 C185.897959,17.5816327 177.954082,25.5255102 177.954082,35.3265306 C177.954082,38.1938776 178.647959,40.8928571 179.857143,43.2908163 C179.739796,43.5204082 179.663265,43.7704082 179.663265,44.0408163 L179.663265,44.0408163 Z" id="Shape" fill="#6D6D6D"></path>
                        <path d="M195.693878,17.0153061 C198.397959,17.0153061 200.954082,17.6173469 203.265306,18.6734694 C203.316327,18.3163265 203.352041,17.9540816 203.352041,17.5867347 C203.352041,13.3571429 199.923469,9.92857143 195.693878,9.92857143 C191.464286,9.92857143 188.035714,13.3571429 188.035714,17.5867347 C188.035714,17.9591837 188.071429,18.3163265 188.122449,18.6734694 C190.433673,17.6173469 192.989796,17.0153061 195.693878,17.0153061 L195.693878,17.0153061 Z" id="Shape" fill="#6D6D6D"></path>
                        <path d="M319.826531,93.7142857 C321.612245,82.7040816 316.086735,69.2806122 312.061224,61.994898 L312.081633,61.994898 C311.928571,61.7193878 311.760204,61.4540816 311.596939,61.1785714 C310.372449,59.0459184 309.341837,57.5561224 308.755102,56.9693878 C301.846939,48.0714286 291.061224,42.3367347 278.928571,42.3367347 C271.489796,42.3367347 264.561224,44.505102 258.714286,48.2193878 C249.352041,51.7908163 236.515306,58.8010204 232.765306,69.1479592 C232.5,69.8826531 232.459184,70.4591837 232.545918,70.9387755 C232.040816,72.494898 232.142857,74.244898 233.015306,75.7806122 C233.015306,75.7806122 250.714286,106.362245 255.678571,103.55102 C256.061224,103.331633 256.270408,102.887755 256.403061,102.357143 C257.581633,108.418367 256.943878,124.096939 256.943878,124.096939 L256.964286,124.081633 C256.770408,126.969388 256.709184,129.964286 256.760204,133.005102 L256.709184,133 L256.790816,135.489796 C256.80102,135.69898 256.80102,135.908163 256.811224,136.117347 L259.367347,212.142857 L260.153061,212.142857 C260.479592,216.163265 263.316327,219.321429 266.806122,219.321429 L266.841837,219.321429 C270.336735,219.321429 273.173469,216.163265 273.494898,212.142857 L274.122449,212.142857 L276.020408,140.137755 C276.515306,133.173469 277.020408,121.321429 276.954082,117.219388 C277.612245,117.270408 278.270408,117.321429 278.943878,117.321429 C279.790816,117.321429 280.627551,117.27551 281.454082,117.193878 C281.377551,120.602041 281.760204,130.239796 282.193878,137.352041 L282.193878,212.147959 L284.897959,212.147959 C285.158163,216.244898 288.02551,219.489796 291.566327,219.489796 L291.602041,219.489796 C295.142857,219.489796 298.010204,216.25 298.270408,212.147959 L300.964286,212.147959 L301.693878,133 L301.647959,133 C301.790816,122.841837 300.408163,113.091837 299.010204,106.816327 C301.765306,102.857143 303.392857,98.0561224 303.392857,92.8673469 C303.392857,92.3673469 303.346939,91.872449 303.316327,91.377551 C303.30102,91.1683673 303.30102,90.9591837 303.285714,90.755102 C303.239796,90.244898 303.168367,89.75 303.096939,89.25 C303.081633,89.127551 303.071429,89.005102 303.05102,88.8826531 L303.081633,88.8826531 L302.994898,88.494898 C302.989796,88.4489796 302.97449,88.4081633 302.964286,88.3673469 C302.867347,87.8622449 302.75,87.3622449 302.622449,86.8673469 C302.556122,86.5867347 302.510204,86.3010204 302.433673,86.0306122 L296.959184,62.005102 L297.647959,62.005102 C298.107143,64.1836735 305.22449,82.9897959 306.811224,87.255102 C307.306122,88.5867347 308.122449,90.4336735 309.102041,92.3265306 C308.469388,93.2806122 308.091837,94.4234694 308.086735,95.6530612 C308.086735,95.6530612 308.336735,130.984694 314.040816,131 C319.744898,131.015306 320.173469,95.6836735 320.173469,95.6836735 C320.178571,94.9846939 320.040816,94.3316327 319.826531,93.7142857 L319.826531,93.7142857 Z M255.556122,85.5561224 C255.392857,86.0867347 255.306122,86.6428571 255.183673,87.1836735 C255.102041,87.5357143 255.010204,87.8826531 254.943878,88.2397959 C254.918367,88.3928571 254.867347,88.5357143 254.841837,88.6887755 L254.75,89.0816327 L254.780612,89.0816327 C254.729592,89.4285714 254.693878,89.7755102 254.653061,90.127551 C254.637755,90.244898 254.622449,90.3571429 254.612245,90.4744898 C254.535714,91.2142857 254.479592,91.9642857 254.479592,92.7244898 C254.479592,92.7806122 254.484694,92.8367347 254.484694,92.8928571 C251.387755,84.5510204 245.765306,73.9387755 244.05102,70.7653061 C246.035714,70.0816327 247.862245,69.3214286 249.122449,68.7040816 C251.862245,67.3673469 257.081633,64.5918367 260.790816,62.5204082 L255.556122,85.5561224 L255.556122,85.5561224 Z M277.397959,47.0510204 C277.397959,47.3673469 277.255102,47.6683673 277.05102,47.7397959 L274.897959,48.4846939 C274.030612,48.7857143 273.061224,48.377551 273.061224,47.4591837 L273.061224,46.2142857 C273.061224,45.2959184 274.035714,44.8928571 274.897959,45.1887755 L277.05102,45.9336735 C277.255102,46.005102 277.397959,46.3061224 277.397959,46.622449 L277.397959,47.0510204 L277.397959,47.0510204 Z M278.943878,48.1734694 C278.209184,48.1734694 277.607143,47.5765306 277.607143,46.8418367 C277.607143,46.1071429 278.204082,45.505102 278.943878,45.505102 C279.678571,45.505102 280.27551,46.1020408 280.27551,46.8418367 C280.280612,47.5765306 279.683673,48.1734694 278.943878,48.1734694 L278.943878,48.1734694 Z M280.816327,47.7397959 C280.612245,47.6683673 280.469388,47.3673469 280.469388,47.0510204 L280.469388,46.622449 C280.469388,46.3061224 280.612245,46.005102 280.816327,45.9336735 L282.969388,45.1887755 C283.836735,44.8877551 284.811224,45.2959184 284.811224,46.2142857 L284.811224,47.4591837 C284.811224,48.377551 283.836735,48.7806122 282.969388,48.4846939 L280.816327,47.7397959 L280.816327,47.7397959 Z" id="Shape" fill="#6D6D6D"></path>
                        <ellipse id="Oval" fill="#6D6D6D" cx="108.515306" cy="17.8826531" rx="17.5306122" ry="17.5306122"></ellipse>
                        <path d="M156.193878,65.627551 C150.030612,48.627551 120.112245,40.3469388 118.688776,41.2091837 C118.658163,41.1887755 118.632653,41.1683673 118.607143,41.1479592 L116.744898,37.2653061 L109.168367,37.9387755 L109.168367,37.9693878 C108.954082,37.9591837 108.739796,37.9387755 108.520408,37.9387755 C108.280612,37.9387755 108.045918,37.9642857 107.811224,37.9744898 L107.811224,37.9387755 L100.234694,37.2653061 L98.3469388,41.2040816 L98.3469388,41.2040816 C96.8112245,40.377551 67,48.6632653 60.8469388,65.627551 C60.5714286,66.3877551 60.5255102,66.9795918 60.622449,67.4744898 C60.1020408,69.0816327 60.2091837,70.8877551 61.1071429,72.4744898 C61.1071429,72.4744898 79.3877551,104.056122 84.5102041,101.158163 C84.9183673,100.928571 85.1683673,100.489796 85.3112245,99.9183673 C85.5255102,100.418367 85.7755102,100.903061 86.0204082,101.392857 C86.1479592,107.668367 85.9795918,110.352041 85.9795918,110.352041 L85.9795918,110.352041 C84.2857143,120.841837 82.8214286,146.653061 87.3418367,209.642857 C87.3418367,209.642857 87.7806122,209.913265 88.5204082,210.260204 L88.5204082,212.561224 C88.5204082,217.081633 91.627551,220.75 95.4591837,220.75 L95.494898,220.75 C99.3265306,220.75 102.433673,217.086735 102.433673,212.561224 L102.433673,210.326531 C102.826531,210.117347 103.219388,209.903061 103.612245,209.642857 C104.489796,186.75 103.683673,161.586735 104.647959,142.892857 C104.69898,142.367347 104.744898,141.872449 104.785714,141.423469 C104.943878,139.627551 105.107143,137.173469 105.260204,134.464286 C105.857143,128.428571 106.770408,123.47449 108.168367,120.010204 C113.97449,134.392857 111.387755,174.673469 112.72449,209.647959 C113.173469,209.943878 113.627551,210.19898 114.081633,210.433673 L114.081633,212.397959 C114.081633,216.918367 117.188776,220.586735 121.020408,220.586735 L121.056122,220.586735 C124.887755,220.586735 127.994898,216.923469 127.994898,212.397959 L127.994898,210.178571 C128.627551,209.872449 128.994898,209.647959 128.994898,209.647959 C133.556122,146.102041 132.02551,120.397959 130.311224,110.091837 L130.331633,110.086735 C130.331633,110.086735 130.193878,107.872449 130.265306,102.790816 C130.811224,101.867347 131.316327,100.918367 131.739796,99.9285714 C131.877551,100.5 132.127551,100.933673 132.540816,101.168367 C137.668367,104.071429 155.943878,72.4846939 155.943878,72.4846939 C156.841837,70.8979592 156.94898,69.0918367 156.428571,67.4846939 C156.510204,66.9846939 156.469388,66.3877551 156.193878,65.627551 L156.193878,65.627551 Z M84.25,83.0612245 C84.0102041,83.8928571 83.8214286,84.744898 83.6683673,85.6122449 L83.5765306,86.0153061 L83.6071429,86.0153061 C83.4030612,87.3112245 83.2653061,88.6326531 83.2653061,89.9846939 C83.2653061,90.0408163 83.2755102,90.0918367 83.2755102,90.1428571 C80.0765306,81.5255102 74.2704082,70.5765306 72.5,67.3061224 C74.5459184,66.5969388 76.4336735,65.8163265 77.7346939,65.1785714 C80.5663265,63.8010204 85.9540816,60.9336735 89.7806122,58.7959184 L84.25,83.0612245 L84.25,83.0612245 Z M98.3469388,41.2142857 L98.3469388,41.2142857 L98.3469388,41.2142857 C98.3469388,41.2091837 98.3469388,41.2142857 98.3469388,41.2142857 L98.3469388,41.2142857 Z M108.515306,85.1938776 L105.22449,81.6683673 L105.903061,43.9081633 C105.693878,43.5 105.540816,43.0561224 105.540816,42.5663265 C105.540816,40.9234694 106.872449,39.5918367 108.515306,39.5918367 C110.158163,39.5918367 111.489796,40.9234694 111.489796,42.5663265 C111.489796,43.0561224 111.341837,43.5 111.127551,43.9132653 L111.806122,81.6734694 L108.515306,85.1938776 L108.515306,85.1938776 Z M133.760204,90.1479592 C133.760204,90.0969388 133.770408,90.0408163 133.770408,89.9897959 C133.770408,88.7091837 133.642857,87.4591837 133.459184,86.2295918 L133.489796,86.2295918 L133.397959,85.8214286 C133.214286,84.7193878 132.984694,83.6326531 132.663265,82.5867347 L127.255102,58.8010204 C131.081633,60.9387755 136.47449,63.8061224 139.306122,65.1836735 C140.607143,65.8163265 142.494898,66.6020408 144.540816,67.3112245 C142.765306,70.5816327 136.959184,81.5255102 133.760204,90.1479592 L133.760204,90.1479592 Z" id="Shape" fill="#6D6D6D"></path>
                        <path d="M395.076531,130.091837 C395.045918,128.193878 394.964286,126.321429 394.836735,124.489796 L394.806122,123.729592 L394.77551,123.729592 C394.081633,114.97449 392.413265,107.193878 390.984694,101.989796 C397.142857,99.1632653 410.27551,80.6785714 410.27551,80.6785714 C411.27551,79.3265306 411.5,77.6479592 411.056122,76.1530612 C411.045918,76.1122449 411.05102,76.0867347 411.040816,76.0459184 C407.02551,60.2244898 381.744898,49.8826531 378.561224,49.7193878 C376.020408,48.494898 373.178571,47.7908163 370.168367,47.7908163 C367.663265,47.7908163 365.321429,48.3673469 363.127551,49.2346939 C363.566327,47.6581633 333.107143,58.9081633 328.561224,76.8316327 C328.515306,77.0102041 328.520408,77.1377551 328.494898,77.3010204 C328.158163,78.7908163 328.387755,80.3928571 329.367347,81.7193878 C329.367347,81.7193878 341.647959,98.005102 348.663265,102.933673 C347.153061,108.056122 345.433673,115.44898 344.602041,123.739796 L344.586735,123.739796 L344.576531,123.984694 C344.239796,127.423469 344.056122,131 344.117347,134.658163 L342.729592,166.744898 L348.943878,166.744898 C348.867347,167.209184 348.69898,167.637755 348.69898,168.127551 C348.69898,168.127551 349.209184,220.770408 357.704082,220.770408 C366.19898,220.770408 366.709184,168.127551 366.709184,168.127551 C366.709184,167.653061 366.637755,167.19898 366.566327,166.744898 L372.556122,166.744898 C372.535714,166.994898 372.479592,167.239796 372.479592,167.494898 C372.479592,167.494898 372.989796,220.137755 381.484694,220.137755 C389.979592,220.137755 390.489796,167.494898 390.489796,167.494898 C390.489796,167.229592 390.377551,167.005102 390.357143,166.744898 L396.663265,166.744898 L395.076531,130.091837 L395.076531,130.091837 Z M386.979592,80.4132653 C388.882653,77.6530612 390.040816,74.3877551 390.397959,70.877551 C392.285714,72.1326531 394.066327,73.2908163 395.295918,74.0510204 C396.540816,74.8163265 398.403061,75.8061224 400.413265,76.7142857 C397.596939,80.755102 391.683673,89.5561224 388.994898,95.6836735 C388.653061,94.9846939 388.30102,94.2959184 387.887755,93.6428571 C387.887755,93.6377551 387.892857,93.627551 387.897959,93.622449 C387.061224,90.9336735 386.581633,88.0204082 386.581633,84.9642857 C386.581633,83.4030612 386.744898,81.8877551 386.979592,80.4132653 L386.979592,80.4132653 Z M339.744898,77.5306122 C341.862245,76.5765306 343.826531,75.5357143 345.132653,74.7244898 C346.362245,73.9642857 348.122449,72.8214286 349.994898,71.5816327 C350.387755,74.4489796 351.336735,77.1122449 352.785714,79.4744898 C353.122449,81.2397959 353.316327,83.0765306 353.316327,84.9693878 C353.316327,88.0255102 352.566327,92.0408163 351.729592,94.7346939 C351.744898,94.7755102 351.765306,94.8112245 351.780612,94.8469388 C351.561224,95.25 351.316327,95.6428571 351.122449,96.0612245 C348.061224,89.7244898 342.489796,81.4693878 339.744898,77.5306122 L339.744898,77.5306122 Z" id="Shape" fill="#6D6D6D"></path>
                        <path d="M457.678571,118.627551 C457.107143,117.142857 455.75,116.209184 454.270408,116.081633 L454.270408,116.02551 L454.270408,116.02551 L454.270408,116 L446.02551,116 C446.02551,115.969388 446.035714,115.938776 446.035714,115.903061 L446.035714,111.94898 C449.520408,110.505102 452.341837,107.780612 453.852041,104.331633 C453.908163,104.44898 453.94898,104.571429 454.020408,104.678571 C454.75,105.331633 453.852041,103.015306 455.229592,101.530612 C456.607143,100.045918 456.464286,98.2040816 455.505102,96.4897959 C454.719388,95.0867347 455.346939,93.9693878 455.821429,93.377551 C458.071429,101.204082 464.627551,102.908163 464.326531,101.872449 C459.19898,97.127551 463.852041,82.7959184 463.852041,82.7959184 L463.806122,82.8265306 C464.122449,81.9387755 464.326531,80.994898 464.326531,80 C464.326531,75.3469388 460.556122,71.5765306 455.903061,71.5765306 C451.903061,71.5765306 448.571429,74.372449 447.709184,78.1122449 C447.071429,78.0459184 446.433673,78.0255102 445.80102,78.1071429 C445.816327,78.1122449 445.831633,78.122449 445.852041,78.127551 C444.173469,77.4795918 442.352041,77.1173469 440.44898,77.1173469 C432.163265,77.1173469 425.443878,83.8367347 425.443878,92.122449 C425.443878,92.4081633 425.515306,92.6734694 425.627551,92.9132653 C425.632653,92.9183673 425.622449,92.9336735 425.627551,92.9387755 C425.918367,93.4285714 426.25,95.0153061 425.290816,96.7295918 C424.331633,98.4438776 424.280612,100.321429 425.653061,101.811224 C427.030612,103.295918 426.137755,105.612245 426.862245,104.959184 C426.97449,104.795918 427.045918,104.607143 427.122449,104.418367 C428.673469,107.892857 431.556122,110.617347 435.107143,112.02551 L435.107143,115.892857 C435.107143,115.923469 435.117347,115.954082 435.117347,115.989796 L426.806122,115.989796 L426.806122,116.015306 L426.806122,116.015306 L426.806122,116.071429 C425.321429,116.19898 423.964286,117.132653 423.397959,118.617347 L407.214286,160.75 C406.418367,162.821429 407.454082,165.137755 409.520408,165.933673 C409.994898,166.117347 410.479592,166.204082 410.959184,166.204082 C412.571429,166.204082 414.091837,165.22449 414.704082,163.627551 L426.806122,132.122449 L426.806122,157 L426.806122,157.785714 L426.806122,159.627551 C426.806122,159.867347 426.852041,160.086735 426.872449,160.321429 L426.872449,210.831633 L427.040816,210.831633 L427.040816,216.045918 C427.040816,218.693878 429.209184,220.862245 431.857143,220.862245 L432.739796,220.862245 C435.387755,220.862245 437.556122,218.693878 437.556122,216.045918 L437.556122,210.831633 L437.607143,210.831633 L437.607143,167.183673 L443.484694,167.183673 L443.484694,177.821429 C443.484694,177.852041 443.47449,177.882653 443.47449,177.918367 L443.47449,216 C443.47449,218.678571 445.663265,220.867347 448.341837,220.867347 L449.341837,220.867347 C452.020408,220.867347 454.209184,218.678571 454.209184,216 L454.209184,210.836735 L454.219388,210.836735 L454.219388,160.137755 C454.229592,159.969388 454.270408,159.806122 454.270408,159.632653 L454.270408,157.790816 L454.270408,157.005102 L454.270408,132.127551 L466.372449,163.632653 C466.984694,165.229592 468.505102,166.209184 470.117347,166.209184 C470.596939,166.209184 471.081633,166.122449 471.556122,165.938776 C473.627551,165.142857 474.658163,162.821429 473.862245,160.755102 L457.678571,118.627551 L457.678571,118.627551 Z M455.183673,88.3520408 L455.071429,88.4234694 C455.076531,88.627551 455.107143,88.8112245 455.117347,89.0153061 C455.066327,88.7857143 455.015306,88.5561224 454.959184,88.3316327 C455.030612,88.3367347 455.107143,88.3418367 455.183673,88.3520408 L455.183673,88.3520408 Z" id="Shape" fill="#6D6D6D"></path>
                        <path d="M51.5663265,118.505102 C50.994898,117.020408 49.6377551,116.086735 48.1530612,115.959184 L48.1530612,115.903061 C48.1530612,115.903061 48.1530612,115.903061 48.1530612,115.897959 L48.1530612,115.877551 L39.9081633,115.877551 C39.9081633,115.846939 39.9183673,115.816327 39.9183673,115.780612 L39.9183673,111.72449 C44.1020408,110.061224 47.3520408,106.55102 48.6479592,102.193878 L48.6479592,102.219388 C50.3316327,99.627551 51.0204082,96.5408163 51.0204082,93.2193878 C51.0204082,87.5918367 48.2091837,82.627551 43.9183673,79.6326531 C46.6785714,79.0204082 45.6479592,75.8877551 43.9744898,75.3316327 C44.0663265,77.9285714 36.75,76.8163265 36.75,76.8163265 L36.8112245,76.8418367 C36.0408163,76.7346939 35.2602041,76.6581633 34.4591837,76.6581633 C25.3112245,76.6581633 17.8979592,84.0714286 17.8979592,93.2193878 C17.8979592,96.5357143 18.5867347,99.627551 20.2653061,102.219388 L20.2653061,102.193878 C21.5612245,106.55102 24.8112245,110.061224 28.994898,111.72449 L28.994898,115.780612 C28.994898,115.811224 29.005102,115.841837 29.005102,115.877551 L20.6989796,115.877551 L20.6989796,115.903061 L20.6989796,115.903061 L20.6989796,115.959184 C19.2142857,116.086735 17.8571429,117.020408 17.2908163,118.505102 L1.10714286,160.637755 C0.31122449,162.709184 1.34693878,165.02551 3.41326531,165.821429 C3.8877551,166.005102 4.37244898,166.091837 4.85204082,166.091837 C6.46428571,166.091837 7.98469388,165.112245 8.59693878,163.515306 L20.6989796,132.010204 L20.6989796,156.887755 L20.6989796,157.673469 L20.6989796,159.515306 C20.6989796,159.755102 20.744898,159.97449 20.7653061,160.209184 L20.7653061,210.719388 L20.9285714,210.719388 L20.9285714,215.933673 C20.9285714,218.581633 23.0969388,220.75 25.744898,220.75 L26.627551,220.75 C29.2755102,220.75 31.4438776,218.581633 31.4438776,215.933673 L31.4438776,210.719388 L31.494898,210.719388 L31.494898,167.071429 L37.372449,167.071429 L37.372449,177.709184 C37.372449,177.739796 37.3622449,177.770408 37.3622449,177.80102 L37.3622449,215.882653 C37.3622449,218.561224 39.5510204,220.75 42.2295918,220.75 L43.2295918,220.75 C45.9081633,220.75 48.0969388,218.561224 48.0969388,215.882653 L48.0969388,210.719388 L48.1071429,210.719388 L48.1071429,160.020408 C48.1173469,159.852041 48.1581633,159.688776 48.1581633,159.515306 L48.1581633,157.673469 L48.1581633,156.887755 L48.1581633,132.010204 L60.2602041,163.515306 C60.872449,165.112245 62.3928571,166.091837 64.005102,166.091837 C64.4846939,166.091837 64.9693878,166.005102 65.4438776,165.821429 C67.5153061,165.02551 68.5459184,162.704082 67.75,160.637755 L51.5663265,118.505102 L51.5663265,118.505102 Z" id="Shape" fill="#6D6D6D"></path>
                    </g>
                </g>
            </g>
            <rect id="Rectangle-1" x="0" y="0" width="2193" height="1163"></rect>
        </g>
    </g>
</svg>