<?xml version="1.0" encoding="UTF-8" standalone="no"?>
<svg width="93px" height="44px" viewBox="0 0 93 44" version="1.1" xmlns="http://www.w3.org/2000/svg" xmlns:xlink="http://www.w3.org/1999/xlink">
    <!-- Generator: Sketch 3.6.1 (26313) - http://www.bohemiancoding.com/sketch -->
    <title>Slice 1</title>
    <desc>Created with Sketch.</desc>
    <defs></defs>
    <g id="Page-1" stroke="none" stroke-width="1" fill="none" fill-rule="evenodd">
        <g id="noun_236207_cc">
            <g id="Group">
                <g>
                    <path d="M53.37,7.853 C53.459,7.903 53.573,7.898 53.653,7.785 C53.7,7.717 53.77,7.662 53.839,7.613 C53.876,7.624 53.917,7.629 53.963,7.623 C54.223,7.589 54.398,7.431 54.536,7.226 C54.589,7.147 54.629,7.059 54.671,6.972 C54.713,7.058 54.753,7.146 54.806,7.226 C54.943,7.431 55.119,7.589 55.379,7.623 C55.425,7.629 55.466,7.623 55.503,7.613 C55.572,7.662 55.642,7.717 55.689,7.785 C55.769,7.899 55.883,7.903 55.972,7.853 C56.027,7.822 56.045,7.708 56.061,7.628 C56.074,7.566 56.059,7.498 56.056,7.432 L56.059,7.432 C56.051,7.223 56.066,7.01 56.03,6.807 C55.948,6.342 55.472,5.99 55.049,6.052 C54.981,6.062 54.771,6.143 54.671,6.186 C54.571,6.143 54.36,6.062 54.293,6.052 C53.871,5.99 53.395,6.341 53.312,6.807 C53.276,7.011 53.291,7.224 53.282,7.432 L53.285,7.432 C53.282,7.497 53.267,7.565 53.28,7.628 C53.297,7.708 53.315,7.821 53.37,7.853 L53.37,7.853 Z" id="Shape"></path>
                    <path id="Shape" d="M89.193,17.919 L89.215,17.905 C89.2,17.904 89.185,17.902 89.17,17.9 C89.182,17.944 89.192,17.989 89.201,18.034 C89.2,17.995 89.194,17.959 89.193,17.919 L89.193,17.919 Z"></path>
                    <path d="M55.822,9.89 L55.822,9.646 C55.822,9.466 55.631,9.387 55.461,9.445 L55.039,9.591 C54.999,9.605 54.971,9.664 54.971,9.726 L54.971,9.81 C54.971,9.872 54.999,9.931 55.039,9.945 L55.461,10.091 C55.632,10.15 55.822,10.07 55.822,9.89 L55.822,9.89 Z" id="Shape"></path>
                    <path d="M76.026,18.942 C76.107,19.07 76.176,19.205 76.243,19.342 C76.77,18.141 77.93,16.416 78.481,15.624 C78.087,15.447 77.722,15.253 77.478,15.102 C77.236,14.953 76.887,14.726 76.518,14.48 C76.448,15.168 76.221,15.809 75.848,16.349 C75.802,16.639 75.77,16.935 75.77,17.242 C75.77,17.841 75.864,18.411 76.028,18.939 C76.027,18.939 76.026,18.94 76.026,18.942 L76.026,18.942 Z" id="Shape"></path>
                    <circle id="Oval" cx="54.673" cy="9.768" r="0.262"></circle>
                    <path d="M68.95,19.177 C68.947,19.169 68.943,19.162 68.94,19.155 C69.104,18.628 69.251,17.84 69.251,17.241 C69.251,16.87 69.212,16.511 69.147,16.164 C68.863,15.702 68.676,15.179 68.6,14.617 C68.233,14.86 67.888,15.084 67.647,15.233 C67.39,15.391 67.006,15.596 66.591,15.783 C67.129,16.555 68.221,18.173 68.822,19.414 C68.859,19.333 68.907,19.257 68.95,19.177 L68.95,19.177 Z" id="Shape"></path>
                    <path id="Shape" d="M19.276,8.666 L19.276,8.665 L19.276,8.665 L19.276,8.666 Z"></path>
                    <path d="M14.21,13.78 C14.557,14.421 15.695,16.567 16.322,18.256 C16.322,18.246 16.32,18.235 16.32,18.225 C16.32,17.959 16.347,17.701 16.387,17.447 L16.381,17.447 L16.399,17.368 C16.429,17.198 16.466,17.032 16.513,16.868 L17.596,12.113 C16.846,12.532 15.79,13.094 15.235,13.364 C14.981,13.488 14.611,13.642 14.21,13.78 L14.21,13.78 Z" id="Shape"></path>
                    <path d="M38.958,12.322 C38.975,12.381 38.987,12.443 38.987,12.508 C38.987,12.889 38.68,13.198 38.299,13.203 C38.404,13.335 38.563,13.422 38.745,13.422 C39.06,13.422 39.316,13.166 39.316,12.851 C39.316,12.611 39.167,12.407 38.958,12.322 L38.958,12.322 Z" id="Shape"></path>
                    <path d="M34.546,16.254 C34.205,16.481 33.884,16.689 33.661,16.827 C33.432,16.968 33.089,17.151 32.718,17.318 C33.235,18.06 34.319,19.673 34.817,20.802 C34.88,20.672 34.95,20.547 35.027,20.426 C35.18,19.933 35.267,19.4 35.267,18.84 C35.267,18.553 35.237,18.276 35.194,18.005 C34.844,17.496 34.613,16.9 34.546,16.254 L34.546,16.254 Z" id="Shape"></path>
                    <path d="M21.852,8.93 C21.852,8.608 21.591,8.347 21.269,8.347 C20.947,8.347 20.686,8.608 20.686,8.93 C20.686,9.026 20.715,9.113 20.757,9.193 L20.624,16.594 L21.269,17.285 L21.914,16.594 L21.781,9.193 C21.823,9.113 21.852,9.026 21.852,8.93 L21.852,8.93 Z" id="Shape"></path>
                    <path d="M37.595,12.508 C37.595,12.444 37.607,12.383 37.623,12.323 C37.415,12.408 37.269,12.612 37.269,12.851 C37.269,13.166 37.525,13.422 37.84,13.422 C38.022,13.422 38.181,13.335 38.286,13.203 C37.904,13.2 37.595,12.89 37.595,12.508 L37.595,12.508 Z" id="Shape"></path>
                    <path d="M24.941,12.112 L26.001,16.774 C26.064,16.98 26.109,17.192 26.145,17.408 L26.163,17.488 L26.157,17.488 C26.193,17.729 26.218,17.974 26.218,18.225 C26.218,18.236 26.216,18.246 26.216,18.256 C26.843,16.567 27.981,14.421 28.328,13.78 C27.927,13.641 27.557,13.488 27.302,13.363 C26.748,13.094 25.691,12.531 24.941,12.112 L24.941,12.112 Z" id="Shape"></path>
                    <path d="M48.829,14.055 C48.582,14.175 48.224,14.324 47.835,14.459 C48.171,15.08 49.273,17.16 49.88,18.796 C49.88,18.785 49.879,18.774 49.879,18.763 C49.879,18.614 49.89,18.467 49.905,18.322 C49.907,18.299 49.911,18.277 49.913,18.254 C49.921,18.186 49.928,18.117 49.938,18.049 L49.932,18.049 L49.95,17.972 C49.955,17.942 49.965,17.914 49.97,17.884 C49.983,17.814 50.001,17.746 50.017,17.677 C50.041,17.57 50.058,17.461 50.09,17.358 L51.116,12.845 C50.389,13.249 49.366,13.793 48.829,14.055 L48.829,14.055 Z M48.721,15.608 C48.555,15.283 48.381,14.948 48.191,14.595 C48.465,14.492 48.728,14.381 48.938,14.279 C49.286,14.109 49.851,13.815 50.407,13.515 C50.411,13.52 50.417,13.524 50.421,13.53 C50.656,13.893 49.761,14.767 48.721,15.608 L48.721,15.608 Z" id="Shape"></path>
                    <path d="M53.88,9.446 C53.71,9.387 53.52,9.467 53.52,9.647 L53.52,9.891 C53.52,10.071 53.711,10.15 53.88,10.092 L54.302,9.946 C54.342,9.932 54.37,9.873 54.37,9.811 L54.37,9.727 C54.37,9.665 54.342,9.606 54.302,9.592 L53.88,9.446 L53.88,9.446 Z" id="Shape"></path>
                    <circle id="Oval" fill="#FFFFFF" cx="72.552" cy="5.185" r="3.803"></circle>
                    <path d="M50.421,13.53 C50.417,13.524 50.411,13.521 50.407,13.515 C49.851,13.814 49.286,14.109 48.938,14.279 C48.728,14.381 48.465,14.492 48.191,14.595 C48.381,14.949 48.554,15.283 48.721,15.608 C49.761,14.767 50.656,13.893 50.421,13.53 L50.421,13.53 Z" id="Shape" fill="#FFFFFF"></path>
                    <path d="M59.998,26.565 L59.991,26.565 L59.991,43.547 L60.595,43.547 L60.595,26.635 L60.598,26.635 C60.598,26.338 60.706,26.069 60.879,25.855 C60.799,25.672 60.728,25.457 60.664,25.217 C60.276,25.544 60.019,26.022 59.998,26.565 L59.998,26.565 Z" id="Shape" fill="#FFFFFF"></path>
                    <path d="M62.522,24.91 C62.473,25.122 62.421,25.322 62.362,25.501 C62.793,25.698 63.095,26.13 63.095,26.635 L63.703,26.635 C63.703,25.849 63.212,25.181 62.522,24.91 L62.522,24.91 Z" id="Shape" fill="#FFFFFF"></path>
                    <path d="M54.671,8.405 C56.508,8.405 57.998,6.916 57.998,5.078 C57.998,3.24 56.509,1.751 54.671,1.751 C52.834,1.751 51.344,3.24 51.344,5.078 C51.344,6.916 52.834,8.405 54.671,8.405 L54.671,8.405 Z M53.283,7.432 C53.291,7.223 53.276,7.01 53.313,6.807 C53.395,6.342 53.871,5.99 54.294,6.052 C54.362,6.062 54.572,6.143 54.672,6.186 C54.772,6.143 54.983,6.062 55.05,6.052 C55.473,5.99 55.948,6.341 56.031,6.807 C56.067,7.011 56.052,7.224 56.06,7.432 L56.057,7.432 C56.06,7.497 56.075,7.565 56.062,7.628 C56.045,7.708 56.028,7.822 55.973,7.853 C55.884,7.903 55.77,7.898 55.69,7.785 C55.643,7.717 55.573,7.662 55.504,7.613 C55.467,7.624 55.427,7.629 55.38,7.623 C55.12,7.589 54.945,7.431 54.807,7.226 C54.754,7.147 54.714,7.059 54.672,6.972 C54.63,7.058 54.59,7.146 54.537,7.226 C54.399,7.431 54.224,7.589 53.964,7.623 C53.918,7.629 53.877,7.623 53.84,7.613 C53.771,7.662 53.701,7.717 53.654,7.785 C53.574,7.899 53.46,7.903 53.371,7.853 C53.316,7.822 53.298,7.708 53.282,7.628 C53.269,7.566 53.284,7.498 53.287,7.432 L53.283,7.432 L53.283,7.432 Z" id="Shape" fill="#FFFFFF"></path>
                    <path d="M45.128,15.768 C43.569,13.634 40.224,12.319 39.821,12.334 C39.357,12.114 38.841,11.987 38.293,11.987 C37.738,11.987 37.215,12.117 36.747,12.342 C36.161,12.373 31.503,14.278 30.763,17.193 C30.761,17.201 30.762,17.206 30.76,17.213 C30.679,17.489 30.72,17.798 30.904,18.047 C30.904,18.047 33.323,21.453 34.458,21.974 C34.261,22.693 34.037,23.679 33.883,24.807 C33.485,28.046 32.062,39.033 32.062,39.033 C32.062,39.033 33.079,39.547 34.896,39.905 C35.135,41.947 35.535,43.738 36.207,43.738 C36.845,43.738 37.238,42.126 37.481,40.217 C38.05,40.245 38.657,40.25 39.301,40.223 C39.542,42.18 39.938,43.854 40.588,43.854 C41.268,43.854 41.67,42.022 41.908,39.951 C42.777,39.807 43.693,39.602 44.651,39.323 C44.651,39.323 43.433,30.346 43.048,26.475 C43.031,26.236 43.008,26.002 42.982,25.77 C42.981,25.754 42.979,25.735 42.977,25.719 L42.976,25.719 C42.703,23.297 42.031,21.346 41.815,20.88 C41.815,20.88 41.81,20.885 41.809,20.885 C41.77,20.8 41.731,20.716 41.687,20.635 L41.687,20.634 C41.533,20.138 41.395,19.398 41.395,18.835 C41.395,18.493 41.431,18.163 41.49,17.843 C41.785,17.369 41.98,16.826 42.039,16.242 C42.38,16.468 42.7,16.677 42.923,16.814 C43.564,17.209 45.086,17.928 45.641,17.707 C45.78,17.687 45.917,17.64 46.043,17.558 C46.043,17.558 46.214,17.445 46.488,17.256 C46.007,16.501 45.626,15.853 45.457,15.562 C45.321,15.648 45.213,15.715 45.128,15.768 L45.128,15.768 Z M35.027,20.424 C34.95,20.545 34.88,20.671 34.817,20.8 C34.319,19.671 33.235,18.058 32.718,17.316 C33.088,17.149 33.431,16.967 33.661,16.825 C33.884,16.687 34.205,16.479 34.546,16.252 C34.613,16.898 34.843,17.494 35.194,18.001 C35.237,18.272 35.267,18.549 35.267,18.836 C35.267,19.398 35.18,19.931 35.027,20.424 L35.027,20.424 Z M37.84,13.422 C37.525,13.422 37.269,13.166 37.269,12.851 C37.269,12.612 37.416,12.409 37.623,12.323 C37.606,12.382 37.595,12.443 37.595,12.508 C37.595,12.89 37.904,13.2 38.285,13.203 C38.181,13.335 38.022,13.422 37.84,13.422 L37.84,13.422 Z M38.745,13.422 C38.563,13.422 38.404,13.335 38.299,13.203 C38.679,13.198 38.987,12.89 38.987,12.508 C38.987,12.443 38.975,12.382 38.958,12.322 C39.168,12.406 39.316,12.611 39.316,12.851 C39.316,13.167 39.06,13.422 38.745,13.422 L38.745,13.422 Z" id="Shape" fill="#FFFFFF"></path>
                    <path d="M35.214,9.22 C35.214,9.362 35.302,9.483 35.427,9.532 C35.36,9.574 35.312,9.645 35.312,9.731 C35.312,9.862 35.418,9.969 35.55,9.969 C35.646,9.969 35.729,9.911 35.766,9.828 C36.403,10.54 37.326,10.991 38.356,10.991 C39.387,10.991 40.31,10.54 40.947,9.828 C40.984,9.911 41.066,9.969 41.163,9.969 C41.294,9.969 41.401,9.863 41.401,9.731 C41.401,9.646 41.354,9.574 41.286,9.532 C41.41,9.483 41.499,9.362 41.499,9.22 C41.499,9.167 41.484,9.118 41.462,9.073 C41.699,8.603 41.835,8.074 41.835,7.512 C41.835,5.591 40.278,4.034 38.357,4.034 C36.436,4.034 34.879,5.591 34.879,7.512 C34.879,8.074 35.015,8.603 35.252,9.073 C35.229,9.118 35.214,9.167 35.214,9.22 L35.214,9.22 Z" id="Shape" fill="#FFFFFF"></path>
                    <path d="M38.356,3.923 C38.886,3.923 39.387,4.041 39.84,4.248 C39.85,4.178 39.857,4.107 39.857,4.035 C39.857,3.206 39.185,2.534 38.356,2.534 C37.527,2.534 36.855,3.206 36.855,4.035 C36.855,4.108 36.862,4.178 36.872,4.248 C37.325,4.041 37.826,3.923 38.356,3.923 L38.356,3.923 Z" id="Shape" fill="#FFFFFF"></path>
                    <path d="M62.686,18.956 C63.036,16.798 61.953,14.167 61.164,12.739 L61.168,12.739 C61.138,12.685 61.105,12.633 61.073,12.579 C60.833,12.161 60.631,11.869 60.516,11.754 C59.162,10.01 57.048,8.886 54.67,8.886 C53.212,8.886 51.854,9.311 50.708,10.039 C48.873,10.739 46.357,12.113 45.622,14.141 C45.57,14.285 45.562,14.398 45.579,14.492 C45.48,14.797 45.5,15.14 45.671,15.441 C45.671,15.441 49.14,21.435 50.113,20.884 C50.188,20.841 50.229,20.754 50.255,20.65 C50.486,21.838 50.361,24.911 50.361,24.911 L50.365,24.908 C50.327,25.474 50.315,26.061 50.325,26.657 L50.315,26.656 L50.331,27.144 C50.333,27.185 50.333,27.226 50.335,27.267 L50.836,42.168 L50.99,42.168 C51.054,42.956 51.61,43.575 52.294,43.575 L52.301,43.575 C52.986,43.575 53.542,42.956 53.605,42.168 L53.728,42.168 L54.1,28.055 C54.197,26.69 54.296,24.367 54.283,23.563 C54.412,23.573 54.541,23.583 54.673,23.583 C54.839,23.583 55.003,23.574 55.165,23.558 C55.15,24.226 55.225,26.115 55.31,27.509 L55.31,42.169 L55.84,42.169 C55.891,42.972 56.453,43.608 57.147,43.608 L57.154,43.608 C57.848,43.608 58.41,42.973 58.461,42.169 L58.989,42.169 L59.132,26.656 L59.123,26.656 C59.151,24.665 58.88,22.754 58.606,21.524 C59.146,20.748 59.465,19.807 59.465,18.79 C59.465,18.692 59.456,18.595 59.45,18.498 C59.447,18.457 59.447,18.416 59.444,18.376 C59.435,18.276 59.421,18.179 59.407,18.081 C59.404,18.057 59.402,18.033 59.398,18.009 L59.404,18.009 L59.387,17.933 C59.386,17.924 59.383,17.916 59.381,17.908 C59.362,17.809 59.339,17.711 59.314,17.614 C59.301,17.559 59.292,17.503 59.277,17.45 L58.204,12.741 L58.339,12.741 C58.429,13.168 59.824,16.854 60.135,17.69 C60.232,17.951 60.392,18.313 60.584,18.684 C60.46,18.871 60.386,19.095 60.385,19.336 C60.385,19.336 60.434,26.261 61.552,26.264 C62.67,26.267 62.754,19.342 62.754,19.342 C62.755,19.205 62.728,19.077 62.686,18.956 L62.686,18.956 Z M50.089,17.357 C50.057,17.461 50.04,17.57 50.016,17.676 C50,17.745 49.982,17.813 49.969,17.883 C49.964,17.913 49.954,17.941 49.949,17.971 L49.931,18.048 L49.937,18.048 C49.927,18.116 49.92,18.184 49.912,18.253 C49.909,18.276 49.906,18.298 49.904,18.321 C49.889,18.466 49.878,18.613 49.878,18.762 C49.878,18.773 49.879,18.784 49.879,18.795 C49.272,17.16 48.17,15.08 47.834,14.458 C48.223,14.324 48.581,14.175 48.828,14.054 C49.365,13.792 50.388,13.248 51.115,12.842 L50.089,17.357 L50.089,17.357 Z M54.37,9.81 C54.37,9.872 54.342,9.931 54.302,9.945 L53.88,10.091 C53.71,10.15 53.52,10.07 53.52,9.89 L53.52,9.646 C53.52,9.466 53.711,9.387 53.88,9.445 L54.302,9.591 C54.342,9.605 54.37,9.664 54.37,9.726 L54.37,9.81 L54.37,9.81 Z M54.673,10.03 C54.529,10.03 54.411,9.913 54.411,9.769 C54.411,9.625 54.528,9.507 54.673,9.507 C54.817,9.507 54.934,9.624 54.934,9.769 C54.935,9.913 54.818,10.03 54.673,10.03 L54.673,10.03 Z M55.04,9.945 C55,9.931 54.972,9.872 54.972,9.81 L54.972,9.726 C54.972,9.664 55,9.605 55.04,9.591 L55.462,9.445 C55.632,9.386 55.823,9.466 55.823,9.646 L55.823,9.89 C55.823,10.07 55.632,10.149 55.462,10.091 L55.04,9.945 L55.04,9.945 Z" id="Shape" fill="#FFFFFF"></path>
                    <circle id="Oval" fill="#FFFFFF" cx="21.269" cy="4.093" r="3.436"></circle>
                    <path d="M30.614,13.451 C29.406,10.119 23.542,8.496 23.263,8.665 C23.257,8.661 23.252,8.657 23.247,8.653 L22.882,7.892 L21.397,8.024 L21.397,8.03 C21.355,8.028 21.313,8.024 21.27,8.024 C21.223,8.024 21.177,8.029 21.131,8.031 L21.131,8.024 L19.646,7.892 L19.276,8.664 L19.276,8.664 C18.975,8.502 13.132,10.126 11.926,13.451 C11.872,13.6 11.863,13.716 11.882,13.813 C11.78,14.128 11.801,14.482 11.977,14.793 C11.977,14.793 15.56,20.983 16.564,20.415 C16.644,20.37 16.693,20.284 16.721,20.172 C16.763,20.27 16.812,20.365 16.86,20.461 C16.885,21.691 16.852,22.217 16.852,22.217 L16.852,22.217 C16.52,24.273 16.233,29.332 17.119,41.678 C17.119,41.678 17.205,41.731 17.35,41.799 L17.35,42.25 C17.35,43.136 17.959,43.855 18.71,43.855 L18.717,43.855 C19.468,43.855 20.077,43.137 20.077,42.25 L20.077,41.812 C20.154,41.771 20.231,41.729 20.308,41.678 C20.48,37.191 20.322,32.259 20.511,28.595 C20.521,28.492 20.53,28.395 20.538,28.307 C20.569,27.955 20.601,27.474 20.631,26.943 C20.748,25.76 20.927,24.789 21.201,24.11 C22.339,26.929 21.832,34.824 22.094,41.679 C22.182,41.737 22.271,41.787 22.36,41.833 L22.36,42.218 C22.36,43.104 22.969,43.823 23.72,43.823 L23.727,43.823 C24.478,43.823 25.087,43.105 25.087,42.218 L25.087,41.783 C25.211,41.723 25.283,41.679 25.283,41.679 C26.177,29.224 25.877,24.186 25.541,22.166 L25.545,22.165 C25.545,22.165 25.518,21.731 25.532,20.735 C25.639,20.554 25.738,20.368 25.821,20.174 C25.848,20.286 25.897,20.371 25.978,20.417 C26.983,20.986 30.565,14.795 30.565,14.795 C30.741,14.484 30.762,14.13 30.66,13.815 C30.676,13.717 30.668,13.6 30.614,13.451 L30.614,13.451 Z M16.513,16.868 C16.466,17.031 16.429,17.198 16.399,17.368 L16.381,17.447 L16.387,17.447 C16.347,17.701 16.32,17.96 16.32,18.225 C16.32,18.236 16.322,18.246 16.322,18.256 C15.695,16.567 14.557,14.421 14.21,13.78 C14.611,13.641 14.981,13.488 15.236,13.363 C15.791,13.093 16.847,12.531 17.597,12.112 L16.513,16.868 L16.513,16.868 Z M19.276,8.666 L19.276,8.666 L19.276,8.666 C19.276,8.665 19.276,8.666 19.276,8.666 L19.276,8.666 Z M21.269,17.286 L20.624,16.595 L20.757,9.194 C20.716,9.114 20.686,9.027 20.686,8.931 C20.686,8.609 20.947,8.348 21.269,8.348 C21.591,8.348 21.852,8.609 21.852,8.931 C21.852,9.027 21.823,9.114 21.781,9.195 L21.914,16.596 L21.269,17.286 L21.269,17.286 Z M26.217,18.257 C26.217,18.247 26.219,18.236 26.219,18.226 C26.219,17.975 26.194,17.73 26.158,17.489 L26.164,17.489 L26.146,17.409 C26.11,17.193 26.065,16.98 26.002,16.775 L24.942,12.113 C25.692,12.532 26.749,13.094 27.304,13.364 C27.559,13.488 27.929,13.642 28.33,13.781 C27.982,14.422 26.844,16.567 26.217,18.257 L26.217,18.257 Z" id="Shape" fill="#FFFFFF"></path>
                    <path d="M77.435,26.086 C77.429,25.714 77.413,25.347 77.388,24.988 L77.382,24.839 L77.376,24.839 C77.24,23.123 76.913,21.598 76.633,20.578 C77.84,20.024 80.414,16.401 80.414,16.401 C80.61,16.136 80.654,15.807 80.567,15.514 C80.565,15.506 80.566,15.501 80.564,15.493 C79.777,12.392 74.822,10.365 74.198,10.333 C73.7,10.093 73.143,9.955 72.553,9.955 C72.062,9.955 71.603,10.068 71.173,10.238 C71.259,9.929 65.289,12.134 64.398,15.647 C64.389,15.682 64.39,15.707 64.385,15.739 C64.319,16.031 64.364,16.345 64.556,16.605 C64.556,16.605 66.963,19.797 68.338,20.763 C68.042,21.767 67.705,23.216 67.542,24.841 L67.539,24.841 L67.537,24.889 C67.471,25.563 67.435,26.264 67.447,26.981 L67.175,33.27 L68.393,33.27 C68.378,33.361 68.345,33.445 68.345,33.541 C68.345,33.541 68.445,43.859 70.11,43.859 C71.775,43.859 71.875,33.541 71.875,33.541 C71.875,33.448 71.861,33.359 71.847,33.27 L73.021,33.27 C73.017,33.319 73.006,33.367 73.006,33.417 C73.006,33.417 73.106,43.735 74.771,43.735 C76.436,43.735 76.536,33.417 76.536,33.417 C76.536,33.365 76.514,33.321 76.51,33.27 L77.746,33.27 L77.435,26.086 L77.435,26.086 Z M75.848,16.349 C76.221,15.808 76.448,15.168 76.518,14.48 C76.888,14.726 77.237,14.953 77.478,15.102 C77.722,15.252 78.087,15.446 78.481,15.624 C77.929,16.416 76.77,18.141 76.243,19.342 C76.176,19.205 76.107,19.07 76.026,18.942 C76.026,18.941 76.027,18.939 76.028,18.938 C75.864,18.411 75.77,17.84 75.77,17.241 C75.77,16.935 75.802,16.638 75.848,16.349 L75.848,16.349 Z M66.59,15.784 C67.005,15.597 67.39,15.393 67.646,15.234 C67.887,15.085 68.232,14.861 68.599,14.618 C68.676,15.18 68.862,15.702 69.146,16.165 C69.212,16.511 69.25,16.871 69.25,17.242 C69.25,17.841 69.103,18.628 68.939,19.156 C68.942,19.164 68.946,19.171 68.949,19.178 C68.906,19.257 68.858,19.334 68.82,19.416 C68.22,18.174 67.128,16.556 66.59,15.784 L66.59,15.784 Z" id="Shape" fill="#FFFFFF"></path>
                    <path d="M89.705,23.839 C89.593,23.548 89.327,23.365 89.037,23.34 L89.037,23.329 L89.037,23.329 L89.037,23.324 L87.421,23.324 C87.421,23.318 87.423,23.312 87.423,23.305 L87.423,22.53 C88.106,22.247 88.659,21.713 88.955,21.037 C88.966,21.06 88.974,21.084 88.988,21.105 C89.131,21.233 88.955,20.779 89.225,20.488 C89.495,20.197 89.467,19.836 89.279,19.5 C89.125,19.225 89.248,19.006 89.341,18.89 C89.782,20.424 91.067,20.758 91.008,20.555 C90.003,19.625 90.915,16.816 90.915,16.816 L90.906,16.822 C90.968,16.648 91.008,16.463 91.008,16.268 C91.008,15.356 90.269,14.617 89.357,14.617 C88.573,14.617 87.92,15.165 87.751,15.898 C87.626,15.885 87.501,15.881 87.377,15.897 C87.38,15.898 87.383,15.9 87.387,15.901 C87.058,15.774 86.701,15.703 86.328,15.703 C84.704,15.703 83.387,17.02 83.387,18.644 C83.387,18.7 83.401,18.752 83.423,18.799 C83.424,18.8 83.422,18.803 83.423,18.804 C83.48,18.9 83.545,19.211 83.357,19.547 C83.169,19.883 83.159,20.251 83.428,20.543 C83.698,20.834 83.523,21.288 83.665,21.16 C83.687,21.128 83.701,21.091 83.716,21.054 C84.02,21.735 84.585,22.269 85.281,22.545 L85.281,23.303 C85.281,23.309 85.283,23.315 85.283,23.322 L83.654,23.322 L83.654,23.327 L83.654,23.327 L83.654,23.338 C83.363,23.363 83.097,23.546 82.986,23.837 L79.814,32.095 C79.658,32.501 79.861,32.955 80.266,33.111 C80.359,33.147 80.454,33.164 80.548,33.164 C80.864,33.164 81.162,32.972 81.282,32.659 L83.654,26.484 L83.654,31.36 L83.654,31.514 L83.654,31.875 C83.654,31.922 83.663,31.965 83.667,32.011 L83.667,41.911 L83.7,41.911 L83.7,42.933 C83.7,43.452 84.125,43.877 84.644,43.877 L84.817,43.877 C85.336,43.877 85.761,43.452 85.761,42.933 L85.761,41.911 L85.771,41.911 L85.771,33.356 L86.923,33.356 L86.923,35.441 C86.923,35.447 86.921,35.453 86.921,35.46 L86.921,42.924 C86.921,43.449 87.35,43.878 87.875,43.878 L88.071,43.878 C88.596,43.878 89.025,43.449 89.025,42.924 L89.025,41.912 L89.027,41.912 L89.027,31.975 C89.029,31.942 89.037,31.91 89.037,31.876 L89.037,31.515 L89.037,31.361 L89.037,26.485 L91.409,32.66 C91.529,32.973 91.827,33.165 92.143,33.165 C92.237,33.165 92.332,33.148 92.425,33.112 C92.831,32.956 93.033,32.501 92.877,32.096 L89.705,23.839 L89.705,23.839 Z M89.216,17.905 L89.194,17.919 C89.195,17.959 89.201,17.995 89.203,18.035 C89.193,17.99 89.183,17.945 89.172,17.901 C89.186,17.902 89.201,17.903 89.216,17.905 L89.216,17.905 Z" id="Shape" fill="#FFFFFF"></path>
                    <path d="M10.107,23.815 C9.995,23.524 9.729,23.341 9.438,23.316 L9.438,23.305 C9.438,23.305 9.438,23.305 9.438,23.304 L9.438,23.3 L7.822,23.3 C7.822,23.294 7.824,23.288 7.824,23.281 L7.824,22.486 C8.644,22.16 9.281,21.472 9.535,20.618 L9.535,20.623 C9.865,20.115 10,19.51 10,18.859 C10,17.756 9.449,16.783 8.608,16.196 C9.149,16.076 8.947,15.462 8.619,15.353 C8.637,15.862 7.203,15.644 7.203,15.644 L7.215,15.649 C7.064,15.628 6.911,15.613 6.754,15.613 C4.961,15.613 3.508,17.066 3.508,18.859 C3.508,19.509 3.643,20.115 3.972,20.623 L3.972,20.618 C4.226,21.472 4.863,22.16 5.683,22.486 L5.683,23.281 C5.683,23.287 5.685,23.293 5.685,23.3 L4.057,23.3 L4.057,23.305 L4.057,23.305 L4.057,23.316 C3.766,23.341 3.5,23.524 3.389,23.815 L0.217,32.073 C0.061,32.479 0.264,32.933 0.669,33.089 C0.762,33.125 0.857,33.142 0.951,33.142 C1.267,33.142 1.565,32.95 1.685,32.637 L4.057,26.462 L4.057,31.338 L4.057,31.492 L4.057,31.853 C4.057,31.9 4.066,31.943 4.07,31.989 L4.07,41.889 L4.102,41.889 L4.102,42.911 C4.102,43.43 4.527,43.855 5.046,43.855 L5.219,43.855 C5.738,43.855 6.163,43.43 6.163,42.911 L6.163,41.889 L6.173,41.889 L6.173,33.334 L7.325,33.334 L7.325,35.419 C7.325,35.425 7.323,35.431 7.323,35.437 L7.323,42.901 C7.323,43.426 7.752,43.855 8.277,43.855 L8.473,43.855 C8.998,43.855 9.427,43.426 9.427,42.901 L9.427,41.889 L9.429,41.889 L9.429,31.952 C9.431,31.919 9.439,31.887 9.439,31.853 L9.439,31.492 L9.439,31.338 L9.439,26.462 L11.811,32.637 C11.931,32.95 12.229,33.142 12.545,33.142 C12.639,33.142 12.734,33.125 12.827,33.089 C13.233,32.933 13.435,32.478 13.279,32.073 L10.107,23.815 L10.107,23.815 Z" id="Shape" fill="#FFFFFF"></path>
                </g>
            </g>
        </g>
    </g>
</svg>