<?xml version="1.0" encoding="UTF-8" standalone="no"?>
<svg width="174px" height="133px" viewBox="0 0 174 133" version="1.1" xmlns="http://www.w3.org/2000/svg" xmlns:xlink="http://www.w3.org/1999/xlink">
    <!-- Generator: Sketch 3.6.1 (26313) - http://www.bohemiancoding.com/sketch -->
    <title>butrfly logo test</title>
    <desc>Created with Sketch.</desc>
    <defs></defs>
    <g id="Page-1" stroke="none" stroke-width="1" fill="none" fill-rule="evenodd">
        <g id="Group-3">
            <g id="noun_394738_cc" transform="translate(76.000000, 43.000000)" opacity="0.996676772">
                <g id="Group">
                    <g id="Shape">
                        <path d="M12.2111702,12.375 L12.7845745,11.5558511 C9.16861702,9.02819149 9.94680851,6.24308511 9.98191489,6.12606383 L9.50212766,5.97978723 L9.02819149,5.83351064 C8.98138298,5.97978723 7.96914894,9.40851064 12.2111702,12.375 L12.2111702,12.375 Z" fill="#F42360"></path>
                        <path d="M18.062234,11.5909574 C17.9861702,11.5031915 17.9042553,11.4271277 17.8164894,11.3510638 C18.7058511,10.3797872 20.4728723,8.11542553 20.4728723,5.48244681 L19.4781915,5.48244681 C19.4781915,8.07446809 17.3835106,10.3797872 16.7984043,10.9765957 C16.775,10.9765957 16.7574468,10.9707447 16.7340426,10.9707447 C16.5234043,10.9707447 16.3244681,11.0117021 16.1430851,11.0819149 C16.3303191,8.48404255 16.4531915,3.11276596 14.5632979,0.97712766 C14.0015957,0.339361702 13.2994681,0.0175531915 12.4920213,0.0175531915 C9.17446809,0.0175531915 6.50053191,3.9787234 5.65797872,6.79308511 C5.23670213,8.19734043 5.23085106,9.35 5.60531915,10.1281915 C3.86170213,10.5143617 0.0292553191,11.731383 0.0292553191,14.9553191 C0.0292553191,15.6515957 0.304255319,16.2484043 0.848404255,16.7340426 C2.1356383,17.875 4.8212766,18.1382979 7.0212766,18.1382979 C7.90478723,18.1382979 8.70638298,18.0973404 9.31489362,18.0505319 C8.6537234,19.0452128 8.20319149,20.1042553 8.77659574,20.6718085 C8.95212766,20.8473404 9.17446809,20.9292553 9.45531915,20.9292553 C9.85904255,20.9292553 10.3739362,20.7478723 10.9882979,20.3851064 C11.825,19.893617 12.7962766,19.1154255 13.7207447,18.1909574 C14.0074468,17.9042553 15.9734043,15.8973404 16.3829787,14.4228723 C16.4941489,14.4462766 16.6111702,14.4579787 16.7340426,14.4579787 C17.693617,14.4579787 18.4776596,13.6739362 18.4776596,12.7143617 C18.4776596,12.6909574 18.4718085,12.6734043 18.4718085,12.65 C19.7531915,11.093617 21.4324468,9.47287234 21.9707447,9.47287234 L21.9707447,8.47819149 C20.8824468,8.47819149 19.0393617,10.4441489 18.062234,11.5909574 L18.062234,11.5909574 Z M6.61170213,7.07978723 C7.48351064,4.16010638 9.98191489,1.01223404 12.4920213,1.01223404 C13.012766,1.01223404 13.4457447,1.21702128 13.8202128,1.63244681 C15.6340426,3.68031915 15.3005319,10.0989362 15.0196809,12.3984043 C15.0021277,12.4978723 14.9904255,12.6031915 14.9904255,12.7085106 C14.9904255,12.8255319 15.0021277,12.9425532 15.0255319,13.0595745 C14.7212766,13.1414894 14.3760638,13.2994681 13.9898936,13.5218085 C13.6271277,13.7382979 13.2292553,14.0132979 12.831383,14.3234043 C11.8542553,13.6037234 8.69468085,11.2984043 6.78723404,10.0462766 C6.24308511,9.70106383 6.1787234,8.53085106 6.61170213,7.07978723 Z M1.50957447,15.9909574 C1.18191489,15.7042553 1.02393617,15.3648936 1.02393617,14.9611702 C1.02393617,12.0765957 5.44734043,11.1579787 6.39521277,10.9941489 C8.17393617,12.1760638 10.9180851,14.1712766 12.0356383,14.9904255 C11.7723404,15.2244681 11.5090426,15.4643617 11.2515957,15.7276596 C11.1228723,15.856383 10.6430851,16.3478723 10.1164894,16.9797872 C8.1037234,17.2021277 3.12446809,17.418617 1.50957447,15.9909574 Z M13.018617,17.4888298 C11.3569149,19.1505319 9.95851064,19.9111702 9.51382979,19.9404255 C9.54308511,19.4957447 10.3037234,18.0914894 11.9654255,16.4297872 C13.6271277,14.7680851 15.0255319,14.0074468 15.4702128,13.9781915 C15.4409574,14.4287234 14.6803191,15.8271277 13.018617,17.4888298 Z M16.7340426,13.4632979 C16.3244681,13.4632979 15.9851064,13.1297872 15.9851064,12.7143617 C15.9851064,12.2989362 16.318617,11.9654255 16.7340426,11.9654255 C17.1494681,11.9654255 17.4829787,12.2989362 17.4829787,12.7143617 C17.4829787,13.1297872 17.1494681,13.4632979 16.7340426,13.4632979 L16.7340426,13.4632979 Z" fill="#FC186A"></path>
                    </g>
                </g>
            </g>
            <text id="butrfly" font-family="Circular-Bold, Circular" font-size="20" font-weight="bold" fill="#4A4A4A">
                <tspan x="55" y="84">butrfly</tspan>
            </text>
            <rect id="Rectangle-1" x="0" y="0" width="174" height="133"></rect>
        </g>
    </g>
</svg>