<?xml version="1.0" encoding="UTF-8" standalone="no"?>
<svg width="92px" height="56px" viewBox="0 0 92 56" version="1.1" xmlns="http://www.w3.org/2000/svg" xmlns:xlink="http://www.w3.org/1999/xlink">
    <!-- Generator: Sketch 3.6.1 (26313) - http://www.bohemiancoding.com/sketch -->
    <title>Group 2</title>
    <desc>Created with Sketch.</desc>
    <defs></defs>
    <g id="Page-1" stroke="none" stroke-width="1" fill="none" fill-rule="evenodd">
        <g id="Group-2" transform="translate(-39.000000, -57.000000)">
            <g id="Group" transform="translate(39.000000, 57.000000)">
                <path d="M32.207,31.393 L43.457,14.383 L44.348,13.034 C38.237,6.694 28.986,3.733 19.85,6.088 C6.347,9.571 -1.777,23.341 1.705,36.844 C5.187,50.349 18.956,58.472 32.459,54.99 C43.391,52.171 50.795,42.609 51.373,31.906 L32.207,31.393 L32.207,31.393 Z" id="Shape" fill="#494C56"></path>
                <path d="M70.94,0.205 C59.805,0.205 50.779,6.995 50.779,15.371 C50.779,15.904 50.815,16.428 50.887,16.945 L48.687,20.102 L45.875,24.141 L50.778,24.556 L55.299,24.941 C58.997,28.356 64.628,30.539 70.94,30.539 C82.073,30.539 91.1,23.749 91.1,15.371 C91.101,6.995 82.073,0.205 70.94,0.205 L70.94,0.205 Z" id="Shape" fill="#43778A"></path>
            </g>
            <rect id="Rectangle-1" fill-opacity="0" fill="#D8D8D8" x="0" y="0" width="170" height="170"></rect>
        </g>
    </g>
</svg>