<?xml version="1.0" encoding="iso-8859-1"?>
<!-- Generator: Adobe Illustrator 16.0.0, SVG Export Plug-In . SVG Version: 6.00 Build 0)  -->
<!DOCTYPE svg PUBLIC "-//W3C//DTD SVG 1.1//EN" "http://www.w3.org/Graphics/SVG/1.1/DTD/svg11.dtd">
<svg version="1.1" id="Capa_1" xmlns="http://www.w3.org/2000/svg" xmlns:xlink="http://www.w3.org/1999/xlink" x="0px" y="0px"
	 width="578.468px" height="578.468px" viewBox="0 0 578.468 578.468" style="enable-background:new 0 0 578.468 578.468;"
	 xml:space="preserve">
<g>
	<g>
		<path d="M455.328,359.804c0-1.281-0.593-1.816-1.859-1.816h-3.629c-1.268,0-1.86,0.535-1.86,1.816c0,0,0,40.631,0,82.84
			c2.472-2.223,4.925-4.475,7.349-6.756C455.328,396.208,455.328,359.804,455.328,359.804z"/>
		<path d="M505.856,234.913h-3.696c-1.004,0-1.812,0.813-1.812,1.812c0,0,0,75.367,0,150.422
			c7.062-8.84,13.751-17.887,20.019-27.086c-7.306-2.079-12.665-8.787-12.67-16.763c-0.01-0.005-0.023-106.574-0.023-106.574
			C507.669,235.726,506.855,234.913,505.856,234.913z"/>
		<path d="M41.827,225.121c3.987-13.861,13.698-45.417,41.124-45.417h73.574c29.434,0,37.05,31.556,41.038,45.417
			c0,0,26.139,85.369,26.148,85.402c2.826,9.214-2.352,18.977-11.57,21.803c-9.213,2.825-18.967-2.353-21.803-11.562
			c-0.009,0-26.086-85.034-26.086-85.034c-0.153-0.359-0.932-1.851-2.754-1.851c-0.167,0-3.672,0-3.672,0h-0.01
			c-1.038-0.014-1.645,0.865-1.367,1.865l52.211,170.862c0.282,0.994,0,2.734-1.817,2.734h-36.629c-1.038,0-1.798,0.842-1.798,1.88
			c0,0,0,30.958,0.005,62.003c28.419,20.431,58.843,37.012,89.945,48.176c0.005-47.731,0.014-165.584,0.014-165.584
			c0-0.622-0.569-1.129-1.19-1.129h-4.681c-0.622,0-1.114,0.507-1.114,1.129l0.014,65.866c-0.004,5.977-4.886,10.562-10.868,10.562
			s-10.916-4.59-10.916-10.571c0-0.033,0-74.372,0-75.257c0-14.821,13.871-26.584,28.124-26.584c0.363,0,63.571,0,63.934,0
			c14.253,0,28.186,11.763,28.186,26.584c0,0.89,0,75.224,0,75.257c0,5.981-4.872,10.571-10.858,10.571
			c-5.981,0-10.925-4.585-10.93-10.562c-0.005,0,0.019-65.866,0.019-65.866c0-0.622-0.487-1.129-1.108-1.129h-4.753
			c-0.622,0-1.129,0.507-1.129,1.129c0,0,0,106.512,0,158.024c0,2.382,0,4.796,0,7.201c28.186-10.223,55.803-24.896,81.86-42.831
			c0-86.87,0-241.491,0-241.491c0-1.004-0.812-1.812-1.812-1.812h-3.695c-1.004,0-1.812,0.813-1.812,1.812
			c0,0-0.015,106.574-0.023,106.574c-0.01,9.635-7.817,17.442-17.457,17.442c-9.639,0-17.456-7.812-17.456-17.457
			c0-0.052,0-119.832,0-121.261c0-23.887,18.374-42.257,41.339-42.257c0.583,0,53.282,0,53.282,0c14.478,0,45.351,0,45.934,0
			c22.964,0,41.339,18.375,41.339,42.257c0,1.062,0,67.368,0,101.467c45.771-85.278,53.2-177.312-10.061-237.551
			c-105.68-96.873-225.751,19.895-241.185,35.778c-0.917,0.947-1.855,1.73-2.123,1.74c-0.268-0.014-1.205-0.798-2.123-1.74
			C271.681,105.829,151.609-10.939,45.929,85.934c-55.701,53.043-56.605,130.724-24.786,206.741
			C28.789,267.708,41.77,225.332,41.827,225.121z M418.843,129.453c0.444-2.18,1.104-4.284,1.95-6.287
			c0.637-1.501,1.377-2.95,2.219-4.332c1.679-2.764,3.744-5.264,6.125-7.425s5.072-3.987,7.999-5.398
			c0.512-0.249,1.071-0.406,1.597-0.631c3.987-1.673,8.329-2.672,12.924-2.672c2.314,0,4.571,0.234,6.751,0.679
			c2.181,0.445,4.284,1.104,6.287,1.951c4.007,1.693,7.617,4.146,10.648,7.177s5.483,6.641,7.177,10.648
			c0.846,2.003,1.506,4.107,1.95,6.287c0.445,2.18,0.679,4.437,0.679,6.751c0,2.314-0.233,4.571-0.679,6.751
			c-0.444,2.18-1.104,4.284-1.95,6.287c-0.531,1.253-1.134,2.467-1.808,3.634c-2.018,3.505-4.647,6.613-7.75,9.175
			c-2.481,2.046-5.265,3.744-8.268,5.016c-2.003,0.846-4.106,1.506-6.287,1.951c-2.18,0.445-4.437,0.679-6.751,0.679
			s-4.571-0.234-6.751-0.679c-2.181-0.444-4.284-1.104-6.287-1.951c-2.004-0.846-3.906-1.884-5.69-3.089
			c-3.562-2.41-6.641-5.484-9.046-9.046c-1.205-1.784-2.242-3.687-3.089-5.69c-0.846-2.003-1.506-4.107-1.95-6.287
			c-0.445-2.18-0.68-4.437-0.68-6.751C418.163,133.885,418.397,131.633,418.843,129.453z M279.24,274.014l7.004-11.795v9.467
			c0.865-0.134,1.75-0.215,2.644-0.249l5.531-9.218v9.687c0.688,0.144,1.363,0.32,2.027,0.526l6.062-10.213v13.172
			c5.876,4.06,9.73,10.839,9.73,18.517c0,12.427-10.074,22.496-22.496,22.496c-12.427,0-22.496-10.074-22.496-22.496
			C267.244,285.279,272.106,277.787,279.24,274.014z M86.886,129.386c0.444-2.18,1.104-4.284,1.951-6.287
			c0.846-2.003,1.884-3.906,3.089-5.69c2.41-3.562,5.484-6.641,9.046-9.046c1.783-1.205,3.687-2.243,5.689-3.089
			c2.003-0.846,4.107-1.506,6.288-1.951c2.18-0.445,4.437-0.679,6.751-0.679c2.314,0,4.571,0.234,6.751,0.679
			c2.18,0.444,4.284,1.104,6.287,1.951s3.906,1.884,5.69,3.089c1.783,1.205,3.442,2.572,4.958,4.088s2.888,3.175,4.088,4.958
			c1.205,1.784,2.242,3.687,3.089,5.69c0.846,2.003,1.506,4.107,1.951,6.287c0.444,2.18,0.679,4.437,0.679,6.751
			c0,2.314-0.234,4.571-0.679,6.751c-0.363,1.769-0.866,3.49-1.497,5.149c-0.55,1.449-1.2,2.854-1.941,4.198
			c-1.664,3.026-3.782,5.771-6.258,8.138c-2.477,2.367-5.322,4.355-8.439,5.876c-2.075,1.014-4.27,1.822-6.56,2.391
			c-1.525,0.378-3.093,0.655-4.695,0.818c-1.124,0.115-2.266,0.172-3.423,0.172c-2.314,0-4.571-0.234-6.751-0.679
			s-4.284-1.104-6.287-1.951c-2.003-0.847-3.907-1.884-5.69-3.089c-3.562-2.41-6.641-5.484-9.046-9.046
			c-1.205-1.784-2.243-3.687-3.089-5.69s-1.506-4.107-1.951-6.287c-0.445-2.18-0.679-4.437-0.679-6.751
			C86.207,133.823,86.441,131.566,86.886,129.386z"/>
		<path d="M292.011,430.504h-4.614c-0.784,0-1.152,0.335-1.152,1.129c0,0,0,25.46,0,50.619c0,0,0,0,0,0.005l0,0l-0.005,47.621
			c0,0,0,0,0.005,0l0,0c0.961,0.238,1.922,0.482,2.888,0.707h0.201c1.301-0.306,2.6-0.631,3.901-0.961
			c0-11.417-0.015-97.991-0.015-97.991C293.215,430.839,292.799,430.504,292.011,430.504z"/>
		<path d="M81.574,233.885h-0.01c0,0-3.509,0-3.672,0c-1.822,0-2.601,1.492-2.754,1.851c0,0-26.077,85.029-26.086,85.034
			c-1.463,4.758-4.777,8.425-8.908,10.48c2.869,5.068,5.876,10.103,9.008,15.104L82.951,235.75
			C83.218,234.75,82.611,233.871,81.574,233.885z"/>
		<path d="M121.526,409.347h-0.029h-3.6h-0.029c-1.038,0-1.879,0.837-1.879,1.875v17.819c2.443,2.396,4.915,4.762,7.411,7.104
			v-24.924C123.4,410.188,122.563,409.347,121.526,409.347z"/>
		<path d="M293.368,529.596l-0.005-47.339l0,0h-0.134c0.005,17.69,0.005,35.954,0.01,47.372
			C293.277,529.614,293.325,529.605,293.368,529.596z"/>
		<path d="M293.225,481.773c0,0.158,0,0.32,0,0.479l0,0h0.134C293.363,482.079,293.306,481.917,293.225,481.773z"/>
	</g>
</g>
<g>
</g>
<g>
</g>
<g>
</g>
<g>
</g>
<g>
</g>
<g>
</g>
<g>
</g>
<g>
</g>
<g>
</g>
<g>
</g>
<g>
</g>
<g>
</g>
<g>
</g>
<g>
</g>
<g>
</g>
</svg>
